<?xml version="1.0" encoding="UTF-8"?>
<!DOCTYPE svg  PUBLIC '-//W3C//DTD SVG 1.1//EN'  'http://www.w3.org/Graphics/SVG/1.1/DTD/svg11.dtd'>
<svg clip-rule="evenodd" fill-rule="evenodd" stroke-linejoin="round" stroke-miterlimit="2" version="1.1" viewBox="0 0 2481 2481" xml:space="preserve" xmlns="http://www.w3.org/2000/svg">
    <g transform="matrix(1.6513 0 0 1.6513 -668.8 -551.46)">
        <circle cx="1170.3" cy="1074.1" r="654.6" fill="#fff"/>
    </g>
    <g transform="matrix(6.9253 0 0 5.7779 -7976.5 -5923.3)">
        <path d="m1334.2 1289.2-10.12-30.23h-15.09l25.21 59.26 25.28-59.26h-15.09l-10.19 30.23z" fill-rule="nonzero"/>
    </g>
    <g transform="matrix(1.1951 -.32023 .377 1.407 -175.04 584.17)">
        <path d="m676.26 852 118.04-122.36-18.118 88.646 49.63-1.729-117.54 129.72 19.018-91.418-51.037-2.853z" fill="#ffd700"/>
    </g>
    <path d="m874.65 1351.3v215.78l-212.2-231.85v337.44h48.17v-215.78l212.2 231.85v-337.44h-48.17zm1104.6-0.28v163.17l-214.96-179.21v336.88h85.25v-163.17l214.96 179.21v-336.88h-85.25zm-1516.6 0.28v321.37h164.44v-48.66h-115.44v-272.71h-49zm1130.8-0.28h-118.71v320.84h88.92v-106.34h29.79c29.34 0 53.55-4.27 72.65-12.83 19.1-8.55 33.3-20.93 42.62-37.12 9.32-16.2 13.98-35.3 13.98-57.3 0-22.3-4.66-41.4-13.98-57.29s-23.52-28.18-42.62-36.89-43.31-13.07-72.65-13.07zm-29.79 143h29.79c14.06 0 24.9-3.05 32.54-9.16s11.46-14.97 11.46-26.59c0-11.3-3.82-20.01-11.46-26.12s-18.48-9.17-32.54-9.17h-29.79v71.04z"/>
    <path d="m805.69 889.99c8.47-15.51 19.954-29.29 35.471-40.188 44.388-31.174 106.28-29.017 156.99-20.14 62.579 10.955 124.89 23.451 187.17 35.991 0 0 58.28 50.301 78.31 50.301s78.31-50.301 78.31-50.301c62.28-12.54 124.59-25.036 187.17-35.991 50.71-8.877 112.6-11.034 156.99 20.14 15.51 10.898 27 24.678 35.47 40.188 2.24-0.153 4.52-0.231 6.82-0.231 36.05 0 65.32 19.073 65.32 42.566 0 20.152-21.54 37.052-50.41 41.45 0.22 2.886 0.4 5.768 0.56 8.642 28.59 4.532 49.85 21.343 49.85 41.363 0 20.76-22.86 38.07-53.06 41.82-12.9 90.73-58.44 176.13-145.27 216.73-55.1 25.76-113.13 27-168 0.99-30.02-14.22-101.21-62.61-153.35-65.13h-8.18c-0.74 0.04-1.48 0.09-2.22 0.15l-0.31-0.03c-0.64-0.05-1.28-0.09-1.92-0.12h-8.17c-52.14 2.52-123.33 50.91-153.35 65.13-54.87 26.01-112.9 24.77-168-0.99-86.825-40.6-132.37-126-145.27-216.73-30.197-3.75-53.058-21.06-53.058-41.82 0-20.02 21.255-36.831 49.85-41.363 0.156-2.875 0.343-5.76 0.563-8.642-28.878-4.398-50.413-21.298-50.413-41.45 0-23.493 29.267-42.566 65.317-42.566 2.304 0 4.58 0.078 6.826 0.231zm292.65 132.03c-63.15-13.35-153.19-14.76-157.01-1.62-3.818 13.14 20.393 106.25 102.7 121.71 82.29 15.45 169.38-13.41 164.33-41.2-5.06-27.79-46.88-65.54-110.02-78.89zm330.58 0c63.15-13.35 153.19-14.76 157-1.62 3.82 13.14-20.39 106.25-102.69 121.71-82.3 15.45-169.38-13.41-164.33-41.2 5.06-27.79 46.87-65.54 110.02-78.89z"/>
</svg>
