<?xml version="1.0" encoding="utf-8"?>
<!-- Generator: Adobe Illustrator 16.0.0, SVG Export Plug-In . SVG Version: 6.00 Build 0)  -->
<!DOCTYPE svg PUBLIC "-//W3C//DTD SVG 1.1//EN" "http://www.w3.org/Graphics/SVG/1.1/DTD/svg11.dtd">
<svg version="1.1" id="logo_1_" xmlns="http://www.w3.org/2000/svg" xmlns:xlink="http://www.w3.org/1999/xlink" x="0px" y="0px"
	 width="956.4px" height="283.259px" viewBox="0 0 956.4 283.259" enable-background="new 0 0 956.4 283.259" xml:space="preserve">
<g>
	<g>
		<path fill="#FFFFFF" d="M123.925,0L75.144,229.747h25.961L89.698,283.25H0L60.189,0H123.925z"/>
		<path fill="#FFFFFF" d="M102.684,283.25L162.873,0h55.865l-5.114,103.072h3.541L239.196,0h61.369l-60.19,283.25H184.12
			l7.473-119.596h-3.541L162.483,283.25H102.684z"/>
		<path fill="#FFFFFF" d="M476.824,283.25L502.791,0h67.666l-31.082,187.652h3.542L590.909,0h67.669L564.16,283.25H476.824z"/>
		<path fill="#FFFFFF" d="M732.545,0c63.731,0,63.731,43.274,57.438,71.993l-12.589,58.616
			c-6.293,28.721-16.128,71.993-79.859,71.993h-9.05l-17.313,80.647h-63.731L667.63,0H732.545z M728.611,60.582
			c1.178-5.9,0-7.079-3.932-7.079h-4.723l-20.453,95.595h5.106c4.333,0,5.511-1.968,6.688-7.081L728.611,60.582z"/>
		<path fill="#FFFFFF" d="M758.517,283.25L818.707,0h55.865l-5.113,103.072h3.539L895.03,0h61.37l-60.192,283.25h-56.252
			l7.472-119.596h-3.542L818.317,283.25H758.517z"/>
	</g>
	<g>
		<polygon fill="#FCC111" points="409.152,116.632 433.935,0.005 284.706,161.488 280.602,165.925 346.893,165.925 321.96,283.259 
			322.008,283.259 389.195,210.555 408.613,189.544 475.986,116.632 		"/>
	</g>
</g>
</svg>
