<?xml version="1.0" encoding="UTF-8" standalone="no"?>
<svg
   viewBox="0 0 117 45"
   version="1.1"
   id="svg4826"
   sodipodi:docname="logo.svg"
   inkscape:version="1.3.1 (9b9bdc1480, 2023-11-25, custom)"
   xmlns:inkscape="http://www.inkscape.org/namespaces/inkscape"
   xmlns:sodipodi="http://sodipodi.sourceforge.net/DTD/sodipodi-0.dtd"
   xmlns="http://www.w3.org/2000/svg"
   xmlns:svg="http://www.w3.org/2000/svg"
   xmlns:rdf="http://www.w3.org/1999/02/22-rdf-syntax-ns#"
   xmlns:cc="http://creativecommons.org/ns#"
   xmlns:dc="http://purl.org/dc/elements/1.1/">
  <metadata
     id="metadata4830">
    <rdf:RDF>
      <cc:Work
         rdf:about="">
        <dc:format>image/svg+xml</dc:format>
        <dc:type
           rdf:resource="http://purl.org/dc/dcmitype/StillImage" />
      </cc:Work>
    </rdf:RDF>
  </metadata>
  <sodipodi:namedview
     pagecolor="#ffffff"
     bordercolor="#666666"
     borderopacity="1"
     objecttolerance="10"
     gridtolerance="10"
     guidetolerance="10"
     inkscape:pageopacity="0"
     inkscape:pageshadow="2"
     inkscape:window-width="1848"
     inkscape:window-height="1016"
     id="namedview4828"
     showgrid="false"
     inkscape:zoom="20.921018"
     inkscape:cx="71.985025"
     inkscape:cy="8.2213973"
     inkscape:window-x="72"
     inkscape:window-y="27"
     inkscape:window-maximized="1"
     inkscape:current-layer="svg4826"
     inkscape:showpageshadow="2"
     inkscape:pagecheckerboard="0"
     inkscape:deskcolor="#d1d1d1" />
  <defs
     id="defs4704">
    <style
       id="style4702">.s1{fill:none;}.s2{fill:#fff;}.s3{fill:#f90;}.s4{fill:#c93;}.s5{fill:#306;}.s6{fill:#7d7dff;}</style>
  </defs>
  <path
     class="s1"
     d="m 28.178355,41.6007 a 2.990482,3.0411 0 0 1 -2.991367,3.05 H 6.9280456 a 2.9962838,3.047 0 0 1 -2.991367,-3.05 V 3.4 A 3.0021839,3.053 0 0 1 6.9280456,0.35 H 25.186988 a 2.9963821,3.0471 0 0 1 2.991367,3.05 z"
     id="path4706"
     inkscape:connector-curvature="0"
     style="fill:none;stroke-width:0.991643" />
  <path
     class="s1"
     d="M 25.186988,0.35 H 6.9280456 A 3.0021839,3.053 0 0 0 3.9366786,3.4 v 38.201 a 2.9962838,3.047 0 0 0 2.991367,3.05 H 25.186988 a 2.990482,3.0411 0 0 0 2.991367,-3.05 V 3.4 A 2.9963821,3.0471 0 0 0 25.186988,0.35 Z m 1.17098,36.0652 a 0.41163256,0.4186 0 0 1 -0.430022,0.4011 H 6.1961342 A 0.41428762,0.4213 0 0 1 5.7570661,36.4152 V 3.1759 A 0.41428762,0.4213 0 0 1 6.1961342,2.7748 h 5.2691128 a 1.1149283,1.1338 0 0 1 0.914521,0.4943 l 1.043143,1.5668 a 1.6225364,1.65 0 0 0 1.363029,0.7369 h 2.332716 a 1.6635423,1.6917 0 0 0 1.244141,-0.569 l 1.582514,-1.8373 a 1.086411,1.1048 0 0 1 0.83241,-0.3917 h 5.15052 a 0.41163256,0.4186 0 0 1 0.430022,0.4011 z"
     id="path4708"
     inkscape:connector-curvature="0"
     style="fill:none;stroke-width:0.991643" />
  <path
     class="s2"
     d="M 25.186988,0.35 H 6.9280456 A 3.0021839,3.053 0 0 0 3.9366786,3.4 v 38.201 a 2.9961855,3.0469 0 0 0 2.991367,3.05 H 25.186988 a 2.9903837,3.041 0 0 0 2.991367,-3.05 V 3.4 A 2.9963821,3.0471 0 0 0 25.186988,0.35 Z"
     id="path4710"
     inkscape:connector-curvature="0"
     style="fill:#ffffff;stroke-width:0.991643" />
  <path
     d="M 25.927651,2.5416 H 20.777524 A 1.3176962,1.34 0 0 0 19.77342,3.0124 L 18.192185,4.8481 A 1.441894,1.4663 0 0 1 17.118361,5.3395 H 14.78594 A 1.3963646,1.42 0 0 1 13.61201,4.7051 L 12.567687,3.1359 A 1.3487702,1.3716 0 0 0 11.465346,2.5416 H 6.1963309 a 0.64045935,0.6513 0 0 0 -0.66819,0.6343 v 33.24 a 0.64016435,0.651 0 0 0 0.6686817,0.6339 H 25.927651 A 0.64262273,0.6535 0 0 0 26.5865,36.4159 V 3.1759 A 0.64301608,0.6539 0 0 0 25.927651,2.5416 Z m -4.9331,0.755 a 0.90881703,0.9242 0 0 1 0.05733,-0.2887 h 1.740539 a 0.90881703,0.9242 0 0 1 0.05733,0.2887 v 2.0725 a 0.92779579,0.9435 0 1 1 -1.855493,0 z M 14.78594,5.8058 h 1.542 a 0.90557196,0.9209 0 0 1 -1.624995,-0.01 v 0 c 0.02793,9e-4 0.05438,0.01 0.083,0.01 z M 8.1876255,3.2966 a 0.90881703,0.9242 0 0 1 0.05733,-0.2887 h 1.740539 a 0.90606364,0.9214 0 0 1 0.057331,0.2887 v 2.0725 a 0.92779579,0.9435 0 1 1 -1.855492,0 z M 26.129534,36.4154 A 0.18614917,0.1893 0 0 1 25.927651,36.583 H 6.1963309 A 0.19027926,0.1935 0 0 1 5.9855979,36.4154 V 3.1759 a 0.19027926,0.1935 0 0 1 0.210733,-0.168 h 1.3339216 a 1.6078844,1.6351 0 0 0 -0.028714,0.2887 v 2.0725 a 1.6138828,1.6412 0 1 0 3.2276675,0 V 3.2966 a 1.6172262,1.6446 0 0 0 -0.02871,-0.2887 h 0.764854 a 0.82867357,0.8427 0 0 1 0.101875,0.013 v 3.6438 a 0.34309269,0.3489 0 1 0 0.686087,0 V 3.4939 l 0.978144,1.47 a 1.8223542,1.8532 0 0 0 0.695822,0.6291 1.604246,1.6314 0 0 0 3.140346,0.2125 h 0.05074 a 1.8815522,1.9134 0 0 0 0.852274,-0.2157 v 1.0749 a 0.34309269,0.3489 0 1 0 0.686087,0 V 5.0156 l 1.462446,-1.698 a 0.84568562,0.86 0 0 1 0.202768,-0.1569 c -0.0037,0.0455 -0.01347,0.0893 -0.01347,0.1359 v 2.0725 a 1.6138828,1.6412 0 1 0 3.227667,0 V 3.2966 a 1.6172262,1.6446 0 0 0 -0.02862,-0.2887 h 0.867024 v 3.6568 a 0.34309269,0.3489 0 1 0 0.686087,0 V 3.0079 h 0.867516 a 0.18683752,0.19 0 0 1 0.201883,0.168 z"
     id="path4712"
     inkscape:connector-curvature="0"
     style="stroke-width:0.991643" />
  <path
     d="m 7.8443362,30.5636 a 0.34358437,0.3494 0 0 0 -0.3430927,0.35 v 4.6632 a 0.34309269,0.3489 0 1 0 0.686087,0 V 30.9134 A 0.34358437,0.3494 0 0 0 7.8443362,30.5636 Z"
     id="path4714"
     inkscape:connector-curvature="0"
     style="stroke-width:0.991643" />
  <path
     d="m 10.990688,30.5636 a 1.6171279,1.6445 0 0 0 -1.6133921,1.6449 v 2.0725 a 1.6133916,1.6407006 0 1 0 3.2267831,0 v -2.0725 a 1.6172262,1.6446 0 0 0 -1.613391,-1.6449 z m 0.927304,3.7174 a 0.92730451,0.9430004 0 1 1 -1.854609,0 v -2.0725 a 0.92730451,0.9430004 0 1 1 1.854609,0 z"
     id="path4716"
     inkscape:connector-curvature="0"
     style="stroke-width:0.991643" />
  <path
     d="m 14.248045,30.5636 a 0.34358437,0.3494 0 0 0 -0.342995,0.35 v 4.6632 a 0.34309269,0.3489 0 1 0 0.686087,0 v -4.6634 a 0.34417438,0.35 0 0 0 -0.343092,-0.3498 z"
     id="path4718"
     inkscape:connector-curvature="0"
     style="stroke-width:0.991643" />
  <path
     d="m 17.394101,30.5636 a 1.6171279,1.6445 0 0 0 -1.613391,1.6449 v 2.0725 a 1.6133915,1.6407003 0 1 0 3.226783,0 v -2.0725 a 1.6171279,1.6445 0 0 0 -1.613392,-1.6449 z m 0.927305,3.7174 a 0.9273045,0.9430004 0 1 1 -1.854609,0 v -2.0725 a 0.9273045,0.9430004 0 1 1 1.854609,0 z"
     id="path4720"
     inkscape:connector-curvature="0"
     style="stroke-width:0.991643" />
  <path
     d="m 20.651557,30.5636 a 0.34417438,0.35 0 0 0 -0.343093,0.35 v 4.6632 a 0.34309269,0.3489 0 1 0 0.686087,0 v -4.6634 a 0.34358437,0.3494 0 0 0 -0.342994,-0.3498 z"
     id="path4722"
     inkscape:connector-curvature="0"
     style="stroke-width:0.991643" />
  <path
     d="m 23.797515,30.5636 a 1.6171279,1.6445 0 0 0 -1.613293,1.6449 v 2.0725 a 1.6133912,1.6407 0 1 0 3.226684,0 v -2.0725 a 1.6171279,1.6445 0 0 0 -1.613391,-1.6449 z m 0.927304,3.7174 a 0.92730411,0.943 0 1 1 -1.85451,0 v -2.0725 a 0.92730411,0.943 0 1 1 1.85451,0 z"
     id="path4724"
     inkscape:connector-curvature="0"
     style="stroke-width:0.991643" />
  <path
     d="m 7.8443362,21.9367 a 0.34358437,0.3494 0 0 0 0.3429943,-0.35 v -4.663 a 0.34309269,0.3489 0 1 0 -0.686087,0 v 4.6633 a 0.34358437,0.3494 0 0 0 0.3430927,0.3497 z"
     id="path4726"
     inkscape:connector-curvature="0"
     style="stroke-width:0.991643" />
  <path
     d="m 10.990688,16.574 a 1.6170296,1.6444 0 0 0 -1.6133921,1.6449 v 2.0725 a 1.6133916,1.6407006 0 1 0 3.2267831,0 V 18.2189 A 1.6171279,1.6445 0 0 0 10.990688,16.574 Z m 0.927304,3.7174 a 0.92730451,0.9430004 0 1 1 -1.854609,0 v -2.0725 a 0.92730451,0.9430004 0 1 1 1.854609,0 z"
     id="path4728"
     inkscape:connector-curvature="0"
     style="stroke-width:0.991643" />
  <path
     d="m 14.248045,21.9367 a 0.34358437,0.3494 0 0 0 0.343092,-0.35 v -4.663 a 0.34309269,0.3489 0 1 0 -0.686087,0 v 4.6633 a 0.34358437,0.3494 0 0 0 0.342995,0.3497 z"
     id="path4730"
     inkscape:connector-curvature="0"
     style="stroke-width:0.991643" />
  <path
     d="m 17.394101,16.574 a 1.6171279,1.6445 0 0 0 -1.613391,1.6449 v 2.0725 a 1.6133915,1.6407003 0 1 0 3.226783,0 V 18.2189 A 1.6170296,1.6444 0 0 0 17.394101,16.574 Z m 0.927305,3.7174 a 0.9273045,0.9430004 0 1 1 -1.854609,0 v -2.0725 a 0.9273045,0.9430004 0 1 1 1.854609,0 z"
     id="path4732"
     inkscape:connector-curvature="0"
     style="stroke-width:0.991643" />
  <path
     d="m 20.651557,21.9367 a 0.34358437,0.3494 0 0 0 0.342994,-0.35 v -4.663 a 0.34309269,0.3489 0 1 0 -0.686087,0 v 4.6633 a 0.34358437,0.3494 0 0 0 0.343093,0.3497 z"
     id="path4734"
     inkscape:connector-curvature="0"
     style="stroke-width:0.991643" />
  <path
     d="m 23.709822,16.574 a 1.6170296,1.6444 0 0 0 -1.613293,1.6449 v 2.0725 a 1.6133912,1.6407 0 1 0 3.226684,0 V 18.2189 A 1.6170296,1.6444 0 0 0 23.709822,16.574 Z m 0.927304,3.7174 a 0.92730411,0.943 0 1 1 -1.85451,0 v -2.0725 a 0.92730411,0.943 0 1 1 1.85451,0 z"
     id="path4736"
     inkscape:connector-curvature="0"
     style="stroke-width:0.991643" />
  <path
     d="m 18.313629,9.1128 a 0.34358437,0.3494 0 0 0 -0.342994,0.35 v 4.6632 a 0.34309269,0.3489 0 1 0 0.686087,0 V 9.4626 A 0.34417438,0.35 0 0 0 18.313629,9.1128 Z"
     id="path4738"
     inkscape:connector-curvature="0"
     style="stroke-width:0.991643" />
  <path
     d="M 15.518441,14.4755 A 1.6181113,1.6455 0 0 0 17.132619,12.83 v -2.0723 a 1.6137845,1.6411 0 1 0 -3.227569,0 V 12.83 a 1.6173246,1.6447 0 0 0 1.613391,1.6455 z m -0.927304,-3.7178 a 0.9276975,0.94340004 0 1 1 1.855395,0 V 12.83 a 0.9276975,0.94340004 0 1 1 -1.855395,0 z"
     id="path4740"
     inkscape:connector-curvature="0"
     style="stroke-width:0.991643" />
  <path
     d="m 18.313629,24.0351 a 0.34358437,0.3494 0 0 0 -0.342994,0.35 v 4.6632 a 0.34309269,0.3489 0 1 0 0.686087,0 v -4.6634 a 0.34417438,0.35 0 0 0 -0.343093,-0.3498 z"
     id="path4742"
     inkscape:connector-curvature="0"
     style="stroke-width:0.991643" />
  <path
     d="m 15.167671,29.3978 a 1.6181113,1.6455 0 0 0 1.614178,-1.6453 V 25.68 a 1.6137845,1.6411 0 1 0 -3.227569,0 v 2.0725 a 1.6173246,1.6447 0 0 0 1.613391,1.6453 z M 14.240367,25.68 a 0.9276975,0.94340004 0 1 1 1.855395,0 v 2.0725 a 0.9276975,0.94340004 0 1 1 -1.855395,0 z"
     id="path4744"
     inkscape:connector-curvature="0"
     style="stroke-width:0.991643" />
  <path
     d="m 11.910216,24.0351 a 0.34358437,0.3494 0 0 0 -0.342995,0.35 v 4.6632 a 0.34309269,0.3489 0 1 0 0.686087,0 v -4.6634 a 0.34417438,0.35 0 0 0 -0.343092,-0.3498 z"
     id="path4746"
     inkscape:connector-curvature="0"
     style="stroke-width:0.991643" />
  <path
     d="M 8.7641597,29.3978 A 1.6182096,1.6456 0 0 0 10.378435,27.7525 V 25.68 a 1.6138828,1.6412 0 1 0 -3.2276664,0 v 2.0725 a 1.6174229,1.6448 0 0 0 1.6133911,1.6453 z M 7.8368556,25.68 a 0.92779579,0.9435 0 1 1 1.8554932,0 v 2.0725 a 0.92779579,0.9435 0 1 1 -1.8554932,0 z"
     id="path4748"
     inkscape:connector-curvature="0"
     style="stroke-width:0.991643" />
  <path
     d="m 24.717141,24.0351 a 0.34417438,0.35 0 0 0 -0.343093,0.35 v 4.6632 a 0.34309269,0.3489 0 1 0 0.686087,0 v -4.6634 a 0.34358437,0.3494 0 0 0 -0.342994,-0.3498 z"
     id="path4750"
     inkscape:connector-curvature="0"
     style="stroke-width:0.991643" />
  <path
     d="M 21.571084,29.3978 A 1.6181113,1.6455 0 0 0 23.18536,27.7525 V 25.68 a 1.6138828,1.6412 0 1 0 -3.227667,0 v 2.0725 a 1.6174229,1.6448 0 0 0 1.613391,1.6453 z M 20.64378,25.68 a 0.92779579,0.9435 0 1 1 1.855493,0 v 2.0725 a 0.92779579,0.9435 0 1 1 -1.855493,0 z"
     id="path4752"
     inkscape:connector-curvature="0"
     style="stroke-width:0.991643" />
  <path
     d="m 37.6,17.9816 a 3.2033,3.2033 0 0 0 1.6506,-0.3333 1.1627,1.1627 0 0 0 0.5378,-1.0666 1.4888,1.4888 0 0 0 -0.5278,-1.2 8.06,8.06 0 0 0 -1.7388,-1 Q 36.9359,14.114 36.399,13.837 a 3.8785,3.8785 0 0 1 -0.9285,-0.6557 2.8389,2.8389 0 0 1 -0.625,-0.9117 3.2533,3.2533 0 0 1 -0.2344,-1.3107 3.1174,3.1174 0 0 1 0.9966,-2.434 3.8987,3.8987 0 0 1 2.7154,-0.9 6.731,6.731 0 0 1 0.8594,0.0555 q 0.4293,0.0561 0.8013,0.1335 0.372,0.0774 0.6541,0.1666 0.2833,0.0888 0.44,0.1558 L 40.7455,9.913 a 4.27,4.27 0 0 0 -0.9176,-0.3662 5.2544,5.2544 0 0 0 -1.5044,-0.189 2.5113,2.5113 0 0 0 -1.3291,0.3448 1.1688,1.1688 0 0 0 -0.566,1.0774 1.6278,1.6278 0 0 0 0.1272,0.6667 1.497,1.497 0 0 0 0.3907,0.5228 3.1367,3.1367 0 0 0 0.6541,0.4336 q 0.391,0.1993 0.9375,0.4216 0.7222,0.3116 1.29,0.6121 a 4.0051,4.0051 0 0 1 0.9666,0.7 2.7014,2.7014 0 0 1 0.615,0.9672 3.928,3.928 0 0 1 0.2154,1.389 2.897,2.897 0 0 1 -1.0457,2.4227 4.7218,4.7218 0 0 1 -2.9788,0.8224 6.89,6.89 0 0 1 -2.1095,-0.2559 10.1126,10.1126 0 0 1 -1.0356,-0.3889 l 0.3316,-1.7779 q 0.3133,0.1339 0.9965,0.4 A 5.1063,5.1063 0 0 0 37.6,17.9816 Z"
     id="path4754" />
  <path
     d="M 45.414,19.4707 H 43.598 V 7.9133 h 1.816 z"
     id="path4756" />
  <path
     d="M 51.2364,19.693 A 3.2143,3.2143 0 0 1 48.8526,18.8705 3.5322,3.5322 0 0 1 48.1494,16.4478 V 2.5789 l 1.817,-0.3557 v 13.8913 a 3.8032,3.8032 0 0 0 0.0781,0.8443 1.2,1.2 0 0 0 0.2544,0.5337 1.0692,1.0692 0 0 0 0.4687,0.3006 4.3625,4.3625 0 0 0 0.7222,0.1666 z"
     id="path4758" />
  <path
     d="m 52.6036,13.7146 a 8.29,8.29 0 0 1 0.3907,-2.6786 5.7678,5.7678 0 0 1 1.0356,-1.9 4.2247,4.2247 0 0 1 1.4844,-1.1335 4.1505,4.1505 0 0 1 1.7188,-0.3779 3.6976,3.6976 0 0 1 3.1461,1.4554 7.37,7.37 0 0 1 1.0937,4.4341 v 0.3443 a 3.6459,3.6459 0 0 1 -0.02,0.3889 h -6.9542 a 4.5675,4.5675 0 0 0 0.9184,2.7342 3.1191,3.1191 0 0 0 2.5,0.9335 5.8644,5.8644 0 0 0 1.6116,-0.1894 5.3436,5.3436 0 0 0 0.9866,-0.3662 l 0.2544,1.7333 a 4.9633,4.9633 0 0 1 -1.1628,0.4226 7.3328,7.3328 0 0 1 -1.8851,0.2222 5.35,5.35 0 0 1 -2.2957,-0.4554 4.3321,4.3321 0 0 1 -1.5916,-1.256 5.3488,5.3488 0 0 1 -0.9285,-1.9008 9.0729,9.0729 0 0 1 -0.3024,-2.4107 z m 6.9743,-1.1339 A 3.8124,3.8124 0 0 0 58.9629,10.28 2.0247,2.0247 0 0 0 57.2141,9.38 2.1606,2.1606 0 0 0 56.11,9.658 2.6792,2.6792 0 0 0 55.3,10.3802 3.463,3.463 0 0 0 54.7822,11.403 5.592,5.592 0 0 0 54.5378,12.5807 Z"
     id="path4760" />
  <path
     d="m 63.560346,8.2467 q 0.591416,-0.1776 1.570364,-0.378 a 11.972062,12.66 0 0 1 2.253414,-0.2 4.3500384,4.6 0 0 1 1.902953,0.3889 3.0532541,3.2287 0 0 1 1.210445,1.0888 4.2689007,4.5142 0 0 1 0.63747,1.6782 10.454655,11.0554 0 0 1 0.184688,2.1558 v 6.49 H 69.601509 V 13.425 A 10.60511,11.2145 0 0 0 69.48141,11.6025 3.1560474,3.3374 0 0 0 69.084233,10.3802 1.6203893,1.7135 0 0 0 68.345388,9.7026 2.8951397,3.0615 0 0 0 67.199342,9.4913 q -0.277078,0 -0.572124,0.0223 c -0.197643,0.015 -0.384884,0.0332 -0.563614,0.0555 -0.17873,0.0223 -0.339303,0.0483 -0.480206,0.0779 -0.140904,0.0296 -0.24313,0.0519 -0.304976,0.0665 v 9.7572 h -1.718076 z"
     id="path4762"
     inkscape:connector-curvature="0"
     style="stroke-width:0.972451" />
  <path
     d="m 74.935615,7.9133 h 3.8492 V 9.647 h -3.8492 v 5.3345 a 7.2741,7.2741 0 0 0 0.1172,1.4336 2.2922,2.2922 0 0 0 0.3525,0.8889 1.2752,1.2752 0 0 0 0.5859,0.4554 2.3016,2.3016 0 0 0 0.82,0.1329 3.4394,3.4394 0 0 0 1.3182,-0.21 c 0.3325,-0.1412 0.5632,-0.2414 0.694,-0.3006 l 0.3516,1.7114 a 6.2639,6.2639 0 0 1 -0.9575,0.3889 4.8254,4.8254 0 0 1 -1.5626,0.2331 4.2181,4.2181 0 0 1 -1.71,-0.3 2.5415,2.5415 0 0 1 -1.0838,-0.9 3.8689,3.8689 0 0 1 -0.5769,-1.4782 11.0434,11.0434 0 0 1 -0.1653,-2.0338 V 4.6905 l 1.816,-0.3556 z"
     id="path4764"
     inkscape:connector-curvature="0" />
  <path
     class="s3"
     d="m 85.236026,18.060796 a 1.9607836,1.7253772 0 0 1 -0.422152,1.104173 1.5054882,1.3247434 0 0 1 -2.29941,0 2.0756119,1.8264196 0 0 1 0,-2.208273 1.5054882,1.3247434 0 0 1 2.29941,0 1.9623738,1.7267765 0 0 1 0.422152,1.1041 z"
     id="path4766"
     inkscape:connector-curvature="0"
     style="fill:#000000;stroke-width:0.785092" />
  <path
     d="m 91.015761,19.693 a 3.2157,3.2157 0 0 1 -2.3838,-0.8225 3.5369,3.5369 0 0 1 -0.7023,-2.4227 V 2.5789 l 1.816,-0.3557 v 13.8913 a 3.8025,3.8025 0 0 0 0.0782,0.8443 1.2081,1.2081 0 0 0 0.2543,0.5337 1.07,1.07 0 0 0 0.4688,0.3006 4.3536,4.3536 0 0 0 0.7231,0.1666 z"
     id="path4768"
     inkscape:connector-curvature="0" />
  <path
     d="m 94.765761,19.4707 h -1.8165 V 7.9133 h 1.8165 z"
     id="path4770"
     inkscape:connector-curvature="0" />
  <path
     d="m 97.005483,8.2467 q 0.591512,-0.1776 1.570463,-0.378 a 11.974838,12.6629 0 0 1 2.254234,-0.2 4.3530767,4.6032 0 0 1 1.90296,0.3889 3.0507094,3.226 0 0 1 1.20959,1.0888 4.2562408,4.5008 0 0 1 0.63748,1.6782 10.454685,11.0554 0 0 1 0.18468,2.1558 v 6.49 h -1.71817 V 13.425 a 10.60514,11.2145 0 0 0 -0.12029,-1.8225 3.1560563,3.3374 0 0 0 -0.39718,-1.2223 1.6203938,1.7135 0 0 0 -0.73885,-0.6776 2.8937293,3.06 0 0 0 -1.14519,-0.2113 c -0.18469,0 -0.37628,0.0077 -0.57298,0.0223 -0.196694,0.0146 -0.384878,0.0332 -0.563602,0.0555 -0.178724,0.0223 -0.338438,0.0483 -0.480185,0.0779 -0.141754,0.0296 -0.243128,0.0519 -0.304974,0.0665 v 9.7572 h -1.71827 z"
     id="path4772"
     inkscape:connector-curvature="0"
     style="stroke-width:0.972452" />
  <path
     d="m 110.26484,13.1144 a 12.8978,12.8978 0 0 1 1.2409,1.2669 q 0.6542,0.7554 1.2892,1.633 0.635,0.8776 1.2009,1.7788 0.567,0.8989 0.9576,1.6776 h -2.1295 q -0.41,-0.7773 -0.9475,-1.5893 -0.5375,-0.812 -1.1225,-1.5556 a 17.4244,17.4244 0 0 0 -1.1919,-1.3671 11.2312,11.2312 0 0 0 -1.1528,-1.0447 v 5.5567 h -1.8173 V 2.5789 l 1.8169,-0.3557 v 10.5351 q 0.4688,-0.5328 1.0356,-1.1777 0.5668,-0.6449 1.1138,-1.3115 0.5464,-0.6667 1.0348,-1.2778 0.4884,-0.6111 0.84,-1.078 h 2.1294 q -0.45,0.5555 -0.9766,1.2223 -0.5266,0.6668 -1.0935,1.3444 -0.5668,0.6776 -1.1428,1.3561 -0.576,0.6785 -1.0847,1.2783 z"
     id="path4774"
     inkscape:connector-curvature="0" />
  <path
     d="m 34.7569,29.0458 h 1.2836 V 39.477 h -1.2836 z"
     id="path4776" />
  <path
     d="M 44.2567,39.477 Q 43.9651,38.921 43.588,38.227 43.2106,37.5358 42.775,36.7898 42.3375,36.0452 41.8683,35.277 41.3991,34.5088 40.9353,33.7942 40.4721,33.0798 40.036,32.4472 39.5999,31.8146 39.2292,31.3333 V 39.477 H 37.9719 V 29.0458 h 1.0193 q 0.6215,0.7527 1.3291,1.7542 0.7076,1.0015 1.4027,2.062 0.6936,1.06 1.31,2.0848 0.6146,1.0231 1.0383,1.8206 v -7.7216 h 1.2564 V 39.477 Z"
     id="path4778" />
  <path
     d="m 49.39,38.4387 q 2.01,0 2.01,-1.5656 a 1.74,1.74 0 0 0 -0.178,-0.8206 1.8952,1.8952 0 0 0 -0.4834,-0.5866 3.2389,3.2389 0 0 0 -0.694,-0.429 q -0.391,-0.18 -0.8276,-0.3615 a 7.9481,7.9481 0 0 1 -0.9521,-0.4436 3.3272,3.3272 0 0 1 -0.78,-0.5875 2.4941,2.4941 0 0 1 -0.5232,-0.8051 2.9815,2.9815 0 0 1 -0.1917,-1.1292 2.7836,2.7836 0 0 1 0.82,-2.1367 3.181,3.181 0 0 1 2.263,-0.7677 5.2808,5.2808 0 0 1 1.5144,0.2031 3.244,3.244 0 0 1 0.9984,0.4435 l -0.41,1.1895 a 3.4039,3.4039 0 0 0 -0.8267,-0.3834 3.9325,3.9325 0 0 0 -1.2764,-0.1886 2.5145,2.5145 0 0 0 -0.6886,0.09 1.6381,1.6381 0 0 0 -0.5551,0.2714 1.2743,1.2743 0 0 0 -0.377,0.459 1.4485,1.4485 0 0 0 -0.139,0.6549 1.5448,1.5448 0 0 0 0.1454,0.7068 1.5793,1.5793 0 0 0 0.41,0.5045 3.4128,3.4128 0 0 0 0.615,0.399 q 0.3516,0.18 0.774,0.3615 0.5955,0.2706 1.092,0.542 a 3.5542,3.5542 0 0 1 0.8594,0.6466 2.6088,2.6088 0 0 1 0.5623,0.8953 3.5261,3.5261 0 0 1 0.199,1.2569 2.5953,2.5953 0 0 1 -0.88,2.1075 3.7521,3.7521 0 0 1 -2.48,0.7378 A 5.6686,5.6686 0 0 1 48.39,39.62 6.651,6.651 0 0 1 47.5769,39.4242 4.39,4.39 0 0 1 46.961,39.1842 q -0.2576,-0.1284 -0.4034,-0.2186 l 0.3843,-1.204 a 5.4268,5.4268 0 0 0 0.9257,0.4363 4.2112,4.2112 0 0 0 1.5224,0.2408 z"
     id="path4780" />
  <path
     d="M 60.0785,29.0458 V 30.31 H 57.195 v 9.167 H 55.9113 V 30.31 H 53.027 v -1.2642 z"
     id="path4782" />
  <path
     d="m 66.2708,39.477 q -0.2247,-0.6775 -0.4233,-1.3325 -0.1986,-0.655 -0.4106,-1.3315 h -4.1535 l -0.834,2.664 h -1.3363 q 0.5288,-1.6558 0.992,-3.063 0.4632,-1.4072 0.9067,-2.6722 0.4428,-1.2638 0.8794,-2.4154 0.4366,-1.1516 0.913,-2.2806 h 1.1773 q 0.477,1.13 0.913,2.2806 0.436,1.1506 0.88,2.4154 0.4429,1.2651 0.9058,2.6722 0.4629,1.4071 0.9929,3.063 z m -1.2037,-3.8681 q -0.4237,-1.31 -0.84,-2.5365 -0.4163,-1.2265 -0.8671,-2.3553 -0.4632,1.1285 -0.8794,2.3553 -0.4162,1.2268 -0.8276,2.5365 z"
     id="path4784" />
  <path
     d="M 74.8567,39.477 Q 74.5651,38.921 74.189,38.227 73.8116,37.5358 73.375,36.7898 72.9384,36.0438 72.4684,35.277 72,34.51 71.5363,33.7946 q -0.4637,-0.7154 -0.9,-1.347 -0.436,-0.6326 -0.8067,-1.1139 V 39.477 H 68.5729 V 29.0458 h 1.0184 q 0.6213,0.7527 1.33,1.7542 0.7087,1.0015 1.4017,2.062 0.695,1.06 1.31,2.0848 0.615,1.0248 1.0384,1.8206 v -7.7216 h 1.2573 V 39.477 Z"
     id="path4786" />
  <path
     d="M 83.985,29.0458 V 30.31 h -2.8835 v 9.167 H 79.8178 V 30.31 h -2.8843 v -1.2642 z"
     id="path4788" />
  <path
     d="m 87.5713,35.3466 a 5.6021,5.6021 0 0 1 0.2652,-1.8143 3.8949,3.8949 0 0 1 0.7014,-1.2869 2.86,2.86 0 0 1 1.0047,-0.7678 2.8162,2.8162 0 0 1 1.1647,-0.2559 2.5016,2.5016 0 0 1 2.1294,0.9863 4.9865,4.9865 0 0 1 0.7413,3.0029 v 0.2332 c 0,0.0956 -0.0054,0.183 -0.0127,0.2632 h -4.71 a 3.0867,3.0867 0 0 0 0.6223,1.8516 2.11,2.11 0 0 0 1.6934,0.6321 4.0063,4.0063 0 0 0 1.09,-0.1275 3.5983,3.5983 0 0 0 0.6687,-0.2487 l 0.1726,1.174 a 3.3756,3.3756 0 0 1 -0.7867,0.286 4.9674,4.9674 0 0 1 -1.2773,0.15 3.6361,3.6361 0 0 1 -1.5553,-0.3079 2.94,2.94 0 0 1 -1.0775,-0.8506 3.6368,3.6368 0 0 1 -0.6286,-1.287 6.16,6.16 0 0 1 -0.2056,-1.6327 z m 4.724,-0.7678 a 2.5876,2.5876 0 0 0 -0.4179,-1.5583 1.3711,1.3711 0 0 0 -1.1828,-0.6094 1.46,1.46 0 0 0 -0.7486,0.1886 1.81,1.81 0 0 0 -0.5487,0.4891 2.3182,2.3182 0 0 0 -0.3507,0.6922 3.8169,3.8169 0 0 0 -0.1653,0.7978 z"
     id="path4790" />
  <path
     d="m 97.2155,38.2065 q 2.0113,0 2.0113,-1.5657 a 1.74,1.74 0 0 0 -0.1789,-0.8206 1.88,1.88 0 0 0 -0.4833,-0.5865 3.2342,3.2342 0 0 0 -0.6941,-0.429 c -0.2607,-0.12 -0.536,-0.2414 -0.8267,-0.3616 A 7.9612,7.9612 0 0 1 96.0908,34 a 3.3433,3.3433 0 0 1 -0.78,-0.5875 2.4768,2.4768 0 0 1 -0.5224,-0.8051 2.9644,2.9644 0 0 1 -0.1917,-1.1294 2.783,2.783 0 0 1 0.8194,-2.1367 3.1808,3.1808 0 0 1 2.263,-0.7678 5.2808,5.2808 0 0 1 1.5144,0.2031 3.2484,3.2484 0 0 1 0.9993,0.4436 l -0.4106,1.1894 a 3.4077,3.4077 0 0 0 -0.8267,-0.3834 3.9288,3.9288 0 0 0 -1.2764,-0.1885 2.5146,2.5146 0 0 0 -0.6886,0.09 1.6465,1.6465 0 0 0 -0.5551,0.2715 1.2836,1.2836 0 0 0 -0.377,0.459 1.45,1.45 0 0 0 -0.139,0.6548 1.5442,1.5442 0 0 0 0.1454,0.7068 1.571,1.571 0 0 0 0.4106,0.5046 3.3811,3.3811 0 0 0 0.615,0.3989 q 0.35,0.18 0.774,0.3616 0.5955,0.27 1.0911,0.5419 a 3.5578,3.5578 0 0 1 0.86,0.6467 2.6231,2.6231 0 0 1 0.5624,0.8953 3.5492,3.5492 0 0 1 0.198,1.2568 2.5975,2.5975 0 0 1 -0.8794,2.1076 3.7552,3.7552 0 0 1 -2.481,0.7377 5.6585,5.6585 0 0 1 -0.9984,-0.0828 6.6714,6.6714 0 0 1 -0.814,-0.1959 4.3322,4.3322 0 0 1 -0.615,-0.24 q -0.2589,-0.1284 -0.4034,-0.2186 l 0.3834,-1.2041 a 5.4229,5.4229 0 0 0 0.9257,0.4363 4.2178,4.2178 0 0 0 1.5217,0.2407 z"
     id="path4792" />
  <path
     d="m 101.78,28.8136 h 1.2837 V 39.2448 H 101.78 Z"
     id="path4794" />
  <path
     d="m 109.11,37.7993 q -0.1335,-0.3606 -0.3507,-0.918 -0.2193,-0.5561 -0.47,-1.2041 -0.2521,-0.6462 -0.536,-1.3315 -0.2839,-0.6853 -0.536,-1.2952 -0.2521,-0.6093 -0.47,-1.0911 -0.2179,-0.4818 -0.3507,-0.7377 -0.1458,1.7773 -0.238,3.8462 -0.0922,2.0689 -0.1586,4.1769 h -1.2564 q 0.0519,-1.3552 0.119,-2.7324 0.0654,-1.3772 0.1518,-2.7087 0.0864,-1.3315 0.1853,-2.5966 0.0995,-1.2651 0.218,-2.3935 h 1.1247 q 0.357,0.6625 0.7676,1.5656 0.4106,0.9031 0.82,1.889 0.41,0.9862 0.794,1.9718 0.384,0.9856 0.7,1.7988 0.3175,-0.8129 0.7013,-1.7988 0.3838,-0.9859 0.794,-1.9718 0.41,-0.9851 0.82,-1.889 0.41,-0.9039 0.7676,-1.5656 h 1.1238 q 0.45,5.0425 0.675,10.4312 h -1.2564 q -0.0667,-2.1067 -0.159,-4.1769 -0.0923,-2.0702 -0.238,-3.8462 -0.1322,0.2568 -0.3507,0.7377 -0.2185,0.4809 -0.47,1.0911 -0.252,0.6106 -0.536,1.2952 -0.284,0.6846 -0.536,1.3315 -0.2506,0.6475 -0.47,1.2041 -0.2194,0.5566 -0.3507,0.918 z"
     id="path4796" />
  <rect
     x="33.136185"
     y="23.449247"
     width="82.793701"
     height="1.9491"
     id="rect4798" />
  <path
     d="M 25.187086,45 H 6.9280456 A 3.3434083,3.4 0 0 1 3.5931926,41.6 V 3.4 A 3.3434083,3.4 0 0 1 6.9280456,0 H 25.187086 a 3.3422282,3.3988 0 0 1 3.333575,3.4 V 41.601 A 3.3422282,3.3988 0 0 1 25.187086,45 Z M 6.9280456,0.7 a 2.6550595,2.7 0 0 0 -2.648766,2.7 v 38.201 a 2.6550595,2.7 0 0 0 2.648766,2.7 H 25.187086 a 2.6550595,2.7 0 0 0 2.647882,-2.7 V 3.4 A 2.6550595,2.7 0 0 0 25.187086,0.7 Z"
     id="path4800"
     inkscape:connector-curvature="0"
     style="stroke-width:0.991643" />
  <path
     d="m 16.287622,43.1384 a 2.1782305,2.2151 0 1 1 2.172527,-2.2151 2.1778371,2.2147 0 0 1 -2.172527,2.2151 z m 0,-4.1969 a 1.948912,1.9819 0 1 0 1.943897,1.9818 1.9484203,1.9814 0 0 0 -1.943897,-1.9818 z"
     id="path4802"
     inkscape:connector-curvature="0"
     style="stroke-width:0.991643" />
  <path
     d="m 16.058894,4.2925 a 1.0317365,1.0492 0 1 1 1.028983,-1.0492 1.0319331,1.0494 0 0 1 -1.028983,1.0492 z m 0,-1.8653 a 0.80251632,0.8161 0 1 0 0.800451,0.8161 0.80251632,0.8161 0 0 0 -0.800451,-0.8161 z"
     id="path4804"
     inkscape:connector-curvature="0"
     style="stroke-width:0.991643" />
  <path
     class="s4"
     d="M 31.2437,9.3113 C 30.5701,8.6262 29.3281,8.6836 28.4382,8.5891 a 51.2908,51.2908 0 0 0 -6.3994,0.1159 5.9686,5.9686 0 0 0 -2.8969,1.035 5.6644,5.6644 0 0 1 -1.9138,0.8891 6.4693,6.4693 0 0 1 -2.5012,0 A 5.2858,5.2858 0 0 1 12.813,9.74 5.9686,5.9686 0 0 0 9.9161,8.705 51.2908,51.2908 0 0 0 3.5167,8.5891 C 2.6267,8.6836 1.3848,8.6262 0.7112,9.3113 a 2.1417,2.1417 0 0 0 -0.5482,1.327 v 0.9243 a 0.9324,0.9324 0 0 0 0.9312,0.9337 0.9324,0.9324 0 0 1 0.9313,0.9337 v 0.9336 c 0,3.61 2.9187,6.0828 6.519,6.0828 3.6003,0 6.519,-2.4732 6.519,-6.0828 a 0.9141,0.9141 0 1 1 1.8279,0 c 0,3.61 2.9187,6.0828 6.519,6.0828 3.6003,0 6.519,-2.4732 6.519,-6.0828 V 13.43 a 0.9325,0.9325 0 0 1 0.9313,-0.9337 0.9325,0.9325 0 0 0 0.9313,-0.9337 v -0.9243 a 2.1419,2.1419 0 0 0 -0.5483,-1.327 z"
     id="path4806" />
  <path
     d="m 23.41,20.6092 c -3.8092,0 -6.6818,-2.685 -6.6818,-6.2457 a 0.7515,0.7515 0 1 0 -1.5026,0 c 0,3.5607 -2.8725,6.2457 -6.6817,6.2457 -3.8092,0 -6.6808,-2.685 -6.6808,-6.2457 V 13.43 A 0.771,0.771 0 0 0 1.0936,12.6594 1.0964,1.0964 0 0 1 0,11.5624 v -0.924 A 2.28,2.28 0 0 1 0.596,9.1966 3.6122,3.6122 0 0 1 2.9852,8.4685 C 3.1642,8.4562 3.3377,8.4439 3.4994,8.427 a 50.6932,50.6932 0 0 1 6.441,0.1171 6.1381,6.1381 0 0 1 2.9679,1.0638 5.1322,5.1322 0 0 0 1.8569,0.8625 6.2885,6.2885 0 0 0 2.42,9e-4 5.5337,5.5337 0 0 0 1.8614,-0.8634 6.1385,6.1385 0 0 1 2.9671,-1.0638 50.7132,50.7132 0 0 1 6.4419,-0.1171 c 0.1617,0.0169 0.3352,0.0292 0.5142,0.0415 a 3.6166,3.6166 0 0 1 2.39,0.7281 2.2663,2.2663 0 0 1 0.5942,1.4295 v 0.9363 a 1.0964,1.0964 0 0 1 -1.0938,1.097 0.7707,0.7707 0 0 0 -0.7686,0.7706 v 0.9335 c 3e-4,3.5607 -2.8722,6.2457 -6.6816,6.2457 z m -7.4358,-7.3414 a 1.1006,1.1006 0 0 1 1.0793,1.0957 c 0,3.3745 2.7326,5.92 6.3565,5.92 3.6239,0 6.3565,-2.5452 6.3565,-5.92 V 13.43 a 1.0963,1.0963 0 0 1 1.0938,-1.0966 0.7711,0.7711 0 0 0 0.7685,-0.771 v -0.924 A 1.9826,1.9826 0 0 0 31.1283,9.4262 h -9e-4 a 3.394,3.394 0 0 0 -2.18,-0.6321 C 28.7638,8.7813 28.5867,8.769 28.4214,8.7513 A 51.4246,51.4246 0 0 0 22.063,8.8665 5.8709,5.8709 0 0 0 19.2376,9.872 5.8445,5.8445 0 0 1 17.2708,10.7864 6.5509,6.5509 0 0 1 14.6889,10.7873 5.4343,5.4343 0 0 1 12.7176,9.872 5.87,5.87 0 0 0 9.8913,8.8665 51.3962,51.3962 0 0 0 3.5339,8.7513 C 3.3686,8.769 3.1914,8.7813 3.007,8.7941 A 3.3939,3.3939 0 0 0 0.8276,9.4257 1.9509,1.9509 0 0 0 0.3252,10.6512 v 0.9112 a 0.7711,0.7711 0 0 0 0.7686,0.771 1.0965,1.0965 0 0 1 1.0947,1.0966 v 0.9335 c 0,3.3745 2.7326,5.92 6.3556,5.92 3.623,0 6.3565,-2.5452 6.3565,-5.92 a 1.1,1.1 0 0 1 1.0738,-1.0957 z"
     id="path4808" />
  <path
     class="s5"
     d="m 29.012732,14.49 a 7.0400378,7.1592 0 0 1 -0.84067,2.5753 4.7299393,4.81 0 0 1 -2.176362,1.8135 6.1716366,6.2761 0 0 1 -6.270464,-0.8112 c -1.525676,-1.322 -2.693017,-4.2143 -1.416032,-6.065 1.064187,-1.5426 3.232387,-2.0336 4.96801,-2.1184 0.97539,-0.0476 1.965235,-0.0164 2.945739,-0.0444 a 3.168666,3.2223 0 0 1 2.265356,0.6542 3.0098541,3.0608 0 0 1 0.710966,2.647 c -0.05202,0.4253 -0.108563,0.885 -0.186543,1.349 z"
     id="path4814"
     inkscape:connector-curvature="0"
     style="fill:#330066;stroke-width:0.991643" />
  <path
     d="m 23.478113,19.51 a 5.9081957,6.0082 0 0 1 -3.827121,-1.353 c -1.465199,-1.27 -2.818493,-4.2155 -1.435698,-6.2211 1.193498,-1.73 3.679715,-2.1 5.056315,-2.1676 0.560512,-0.0274 1.13548,-0.0292 1.691371,-0.0306 0.419008,-9e-4 0.8389,-0.0022 1.25604,-0.0141 a 3.195905,3.25 0 0 1 2.346876,0.6845 3.1641426,3.2177 0 0 1 0.74676,2.7474 c -0.05084,0.4144 -0.108169,0.8839 -0.187526,1.3548 v 0 a 6.9708095,7.0888 0 0 1 -0.856699,2.618 4.8553171,4.9375 0 0 1 -2.228087,1.8585 6.6122782,6.7242 0 0 1 -2.562231,0.5232 z m 2.927449,-9.5559 q -0.0885,0 -0.179561,0.0027 c -0.419892,0.0118 -0.841555,0.0132 -1.262235,0.0141 -0.553039,0.0014 -1.124761,0.0032 -1.681537,0.03 -1.33461,0.0651 -3.743044,0.42 -4.87941,2.0684 -1.256924,1.822 -0.03392,4.67 1.396365,5.91 a 6.0476355,6.15 0 0 0 6.151576,0.7924 4.6285554,4.7069 0 0 0 2.124048,-1.7683 6.7594865,6.8739 0 0 0 0.824543,-2.5329 v 0 c 0.07867,-0.465 0.135802,-0.9318 0.185855,-1.3434 A 2.8767078,2.9254 0 0 0 28.41023,10.58 2.8467155,2.8949 0 0 0 26.405562,9.954 Z"
     id="path4816"
     inkscape:connector-curvature="0"
     style="stroke-width:0.991643" />
  <g
     id="g1"
     transform="translate(-0.38239056)">
    <path
       class="s5"
       d="m 3.3879663,14.49 a 7.0420045,7.1612 0 0 0 0.8406705,2.5753 4.7299393,4.81 0 0 0 2.1763621,1.8135 6.1718333,6.2763 0 0 0 6.2705621,-0.8112 c 1.525578,-1.322 2.692919,-4.2143 1.416032,-6.065 C 13.027602,10.46 10.8595,9.9693 9.1237798,9.8845 8.148488,9.8369 7.1586425,9.8681 6.1781388,9.8401 a 3.1687643,3.2224 0 0 0 -2.2654541,0.6542 3.0097558,3.0607 0 0 0 -0.7108676,2.647 c 0.051626,0.425 0.1081691,0.8847 0.1861492,1.3487 z"
       id="path4810"
       inkscape:connector-curvature="0"
       style="fill:#330066;stroke-width:0.991643" />
    <path
       d="M 8.9228803,19.51 A 6.6163099,6.7283 0 0 1 6.3607479,18.9868 4.8715425,4.954 0 0 1 4.1318746,17.1283 6.9947051,7.1131 0 0 1 3.2751754,14.51 v 0 C 3.196507,14.0391 3.1384891,13.57 3.0883379,13.1561 A 3.0960944,3.1485 0 0 1 3.8351963,10.4083 3.1623725,3.2159 0 0 1 6.1824656,9.7235 c 0.4172377,0.0119 0.8371304,0.0132 1.2560398,0.0141 0.5556941,0.0014 1.130072,0.0032 1.6913713,0.0306 1.3766973,0.0674 3.8627183,0.438 5.0562163,2.1676 1.382991,2.0047 0.02862,4.951 -1.435699,6.2211 A 5.9083924,6.0084 0 0 1 8.9228803,19.51 Z M 3.5002655,14.4705 a 6.8007874,6.9159 0 0 0 0.8245435,2.5329 4.6347505,4.7132 0 0 0 2.1253259,1.7683 6.0482255,6.1506 0 0 0 6.1514781,-0.7924 c 1.43029,-1.24 2.653289,-4.088 1.396364,-5.91 C 12.861612,10.4212 10.453178,10.066 9.1184697,10.0009 8.5619889,9.9736 7.9902661,9.9718 7.436932,9.9709 7.0161543,9.97 6.5944915,9.9686 6.1746971,9.9568 a 2.9804518,3.0309 0 0 0 -2.184229,0.623 2.8741511,2.9228 0 0 0 -0.6753684,2.547 c 0.049954,0.4116 0.1071857,0.878 0.1848708,1.3438 z"
       id="path4812"
       inkscape:connector-curvature="0"
       style="stroke-width:0.991643" />
    <path
       class="s2"
       d="m 9.6152609,17.7175 c -0.1054157,0 -0.2099464,-0.005 -0.3153621,-0.0155 a 0.40809248,0.415 0 0 1 0.078668,-0.8261 2.7337279,2.78 0 0 0 2.1564992,-0.8224 3.2241273,3.2787 0 0 0 1.082772,-2.461 0.40710912,0.414 0 0 1 0.36453,-0.4535 0.40052064,0.4073 0 0 1 0.44487,0.3725 3.8996924,3.9657 0 0 1 -1.32399,3.1367 3.5807902,3.6414 0 0 1 -2.4879871,1.0693 z"
       id="path4818"
       inkscape:connector-curvature="0"
       style="fill:#ffffff;stroke-width:0.991643" />
  </g>
  <path
     class="s2"
     d="m 24.31249,17.7175 c -0.105415,0 -0.209946,-0.005 -0.315362,-0.0155 a 0.40809248,0.415 0 0 1 0.07867,-0.8261 2.7330396,2.7793 0 0 0 2.156596,-0.8224 3.2231439,3.2777 0 0 0 1.081691,-2.4614 0.40750247,0.4144 0 1 1 0.81117,-0.08 3.9065759,3.9727 0 0 1 -1.324776,3.1363 3.5810853,3.6417 0 0 1 -2.487989,1.0691 z"
     id="path4820"
     inkscape:connector-curvature="0"
     style="fill:#ffffff;stroke-width:0.991643" />
  <path
     class="s6"
     d="m 44.49646,5.824 a 1.2582695,1.0923 0 0 1 -0.956114,-0.3666 1.603277,1.3918 0 0 1 -0.393505,-0.9891 1.603277,1.3918 0 0 1 0.393505,-0.9891 1.2930582,1.1225 0 0 1 1.91292,0 1.6078848,1.3958 0 0 1 0.393504,0.9891 1.6078848,1.3958 0 0 1 -0.393504,0.9891 1.2613798,1.095 0 0 1 -0.956806,0.3666 z"
     id="path4822"
     inkscape:connector-curvature="0"
     style="fill:#000000;stroke-width:1.07329" />
  <path
     class="s6"
     d="m 93.804118,5.824 a 1.2167166,1.0923 0 0 1 -0.92454,-0.3666 1.5513332,1.3927 0 0 1 -0.381957,-0.9891 1.5513332,1.3927 0 0 1 0.381511,-0.9891 1.249354,1.1216 0 0 1 1.84908,0 1.5513332,1.3927 0 0 1 0.381512,0.9891 1.5513332,1.3927 0 0 1 -0.381512,0.9891 1.2176078,1.0931 0 0 1 -0.924094,0.3666 z"
     id="path4824"
     inkscape:connector-curvature="0"
     style="fill:#000000;stroke-width:1.05542" />
</svg>
