<?xml version="1.0" encoding="UTF-8" standalone="no"?>
<svg
   xmlns:dc="http://purl.org/dc/elements/1.1/"
   xmlns:cc="http://creativecommons.org/ns#"
   xmlns:rdf="http://www.w3.org/1999/02/22-rdf-syntax-ns#"
   xmlns:svg="http://www.w3.org/2000/svg"
   xmlns="http://www.w3.org/2000/svg"
   xmlns:sodipodi="http://sodipodi.sourceforge.net/DTD/sodipodi-0.dtd"
   xmlns:inkscape="http://www.inkscape.org/namespaces/inkscape"
   viewBox="0 0 117 45"
   version="1.1"
   id="svg4826"
   sodipodi:docname="logo.svg"
   inkscape:version="0.92.5 (2060ec1f9f, 2020-04-08)">
  <metadata
     id="metadata4830">
    <rdf:RDF>
      <cc:Work
         rdf:about="">
        <dc:format>image/svg+xml</dc:format>
        <dc:type
           rdf:resource="http://purl.org/dc/dcmitype/StillImage" />
      </cc:Work>
    </rdf:RDF>
  </metadata>
  <sodipodi:namedview
     pagecolor="#ffffff"
     bordercolor="#666666"
     borderopacity="1"
     objecttolerance="10"
     gridtolerance="10"
     guidetolerance="10"
     inkscape:pageopacity="0"
     inkscape:pageshadow="2"
     inkscape:window-width="1848"
     inkscape:window-height="1016"
     id="namedview4828"
     showgrid="false"
     inkscape:zoom="11.213675"
     inkscape:cx="58.5"
     inkscape:cy="8.2317073"
     inkscape:window-x="72"
     inkscape:window-y="27"
     inkscape:window-maximized="1"
     inkscape:current-layer="svg4826" />
  <defs
     id="defs4704">
    <style
       id="style4702">.s1{fill:none;}.s2{fill:#fff;}.s3{fill:#f90;}.s4{fill:#c93;}.s5{fill:#306;}.s6{fill:#7d7dff;}</style>
  </defs>
  <path
     class="s1"
     d="m 28.178355,41.6007 a 2.990482,3.0411 0 0 1 -2.991367,3.05 H 6.9280456 a 2.9962838,3.047 0 0 1 -2.991367,-3.05 V 3.4 A 3.0021839,3.053 0 0 1 6.9280456,0.35 H 25.186988 a 2.9963821,3.0471 0 0 1 2.991367,3.05 z"
     id="path4706"
     inkscape:connector-curvature="0"
     style="fill:none;stroke-width:0.99164277" />
  <path
     class="s1"
     d="M 25.186988,0.35 H 6.9280456 A 3.0021839,3.053 0 0 0 3.9366786,3.4 v 38.201 a 2.9962838,3.047 0 0 0 2.991367,3.05 H 25.186988 a 2.990482,3.0411 0 0 0 2.991367,-3.05 V 3.4 A 2.9963821,3.0471 0 0 0 25.186988,0.35 Z m 1.17098,36.0652 a 0.41163256,0.4186 0 0 1 -0.430022,0.4011 H 6.1961342 A 0.41428762,0.4213 0 0 1 5.7570661,36.4152 V 3.1759 A 0.41428762,0.4213 0 0 1 6.1961342,2.7748 h 5.2691128 a 1.1149283,1.1338 0 0 1 0.914521,0.4943 l 1.043143,1.5668 a 1.6225364,1.65 0 0 0 1.363029,0.7369 h 2.332716 a 1.6635423,1.6917 0 0 0 1.244141,-0.569 l 1.582514,-1.8373 a 1.086411,1.1048 0 0 1 0.83241,-0.3917 h 5.15052 a 0.41163256,0.4186 0 0 1 0.430022,0.4011 z"
     id="path4708"
     inkscape:connector-curvature="0"
     style="fill:none;stroke-width:0.99164277" />
  <path
     class="s2"
     d="M 25.186988,0.35 H 6.9280456 A 3.0021839,3.053 0 0 0 3.9366786,3.4 v 38.201 a 2.9961855,3.0469 0 0 0 2.991367,3.05 H 25.186988 a 2.9903837,3.041 0 0 0 2.991367,-3.05 V 3.4 A 2.9963821,3.0471 0 0 0 25.186988,0.35 Z"
     id="path4710"
     inkscape:connector-curvature="0"
     style="fill:#ffffff;stroke-width:0.99164277" />
  <path
     d="M 25.927651,2.5416 H 20.777524 A 1.3176962,1.34 0 0 0 19.77342,3.0124 L 18.192185,4.8481 A 1.441894,1.4663 0 0 1 17.118361,5.3395 H 14.78594 A 1.3963646,1.42 0 0 1 13.61201,4.7051 L 12.567687,3.1359 A 1.3487702,1.3716 0 0 0 11.465346,2.5416 H 6.1963309 a 0.64045935,0.6513 0 0 0 -0.66819,0.6343 v 33.24 a 0.64016435,0.651 0 0 0 0.6686817,0.6339 H 25.927651 A 0.64262273,0.6535 0 0 0 26.5865,36.4159 V 3.1759 A 0.64301608,0.6539 0 0 0 25.927651,2.5416 Z m -4.9331,0.755 a 0.90881703,0.9242 0 0 1 0.05733,-0.2887 h 1.740539 a 0.90881703,0.9242 0 0 1 0.05733,0.2887 v 2.0725 a 0.92779579,0.9435 0 1 1 -1.855493,0 z M 14.78594,5.8058 h 1.542 a 0.90557196,0.9209 0 0 1 -1.624995,-0.01 v 0 c 0.02793,9e-4 0.05438,0.01 0.083,0.01 z M 8.1876255,3.2966 a 0.90881703,0.9242 0 0 1 0.05733,-0.2887 h 1.740539 a 0.90606364,0.9214 0 0 1 0.057331,0.2887 v 2.0725 a 0.92779579,0.9435 0 1 1 -1.855494,0 z M 26.129534,36.4154 A 0.18614917,0.1893 0 0 1 25.927651,36.583 H 6.1963309 A 0.19027926,0.1935 0 0 1 5.9855979,36.4154 V 3.1759 a 0.19027926,0.1935 0 0 1 0.210733,-0.168 h 1.3339216 a 1.6078844,1.6351 0 0 0 -0.028714,0.2887 v 2.0725 a 1.6138828,1.6412 0 1 0 3.2276675,0 V 3.2966 a 1.6172262,1.6446 0 0 0 -0.02871,-0.2887 h 0.764854 a 0.82867357,0.8427 0 0 1 0.101875,0.013 v 3.6438 a 0.34309269,0.3489 0 1 0 0.686087,0 V 3.4939 l 0.978144,1.47 a 1.8223542,1.8532 0 0 0 0.695822,0.6291 1.604246,1.6314 0 0 0 3.140346,0.2125 h 0.05074 a 1.8815522,1.9134 0 0 0 0.852274,-0.2157 v 1.0749 a 0.34309269,0.3489 0 1 0 0.686087,0 V 5.0156 l 1.462446,-1.698 a 0.84568562,0.86 0 0 1 0.202768,-0.1569 c -0.0037,0.0455 -0.01347,0.0893 -0.01347,0.1359 v 2.0725 a 1.6138828,1.6412 0 1 0 3.227667,0 V 3.2966 a 1.6172262,1.6446 0 0 0 -0.02862,-0.2887 h 0.867024 v 3.6568 a 0.34309269,0.3489 0 1 0 0.686087,0 V 3.0079 h 0.867516 a 0.18683752,0.19 0 0 1 0.201883,0.168 z"
     id="path4712"
     inkscape:connector-curvature="0"
     style="stroke-width:0.99164277" />
  <path
     d="m 7.8443362,30.5636 a 0.34358437,0.3494 0 0 0 -0.3430927,0.35 v 4.6632 a 0.34309269,0.3489 0 1 0 0.686087,0 V 30.9134 A 0.34358437,0.3494 0 0 0 7.8443362,30.5636 Z"
     id="path4714"
     inkscape:connector-curvature="0"
     style="stroke-width:0.99164277" />
  <path
     d="m 10.990688,30.5636 a 1.6171279,1.6445 0 0 0 -1.6133921,1.6449 v 2.0725 a 1.6133915,1.6407005 0 1 0 3.2267831,0 v -2.0725 a 1.6172262,1.6446 0 0 0 -1.613391,-1.6449 z m 0.927304,3.7174 a 0.92730451,0.9430004 0 1 1 -1.854609,0 v -2.0725 a 0.92730451,0.9430004 0 1 1 1.854609,0 z"
     id="path4716"
     inkscape:connector-curvature="0"
     style="stroke-width:0.99164277" />
  <path
     d="m 14.248045,30.5636 a 0.34358437,0.3494 0 0 0 -0.342995,0.35 v 4.6632 a 0.34309269,0.3489 0 1 0 0.686087,0 v -4.6634 a 0.34417438,0.35 0 0 0 -0.343092,-0.3498 z"
     id="path4718"
     inkscape:connector-curvature="0"
     style="stroke-width:0.99164277" />
  <path
     d="m 17.394101,30.5636 a 1.6171279,1.6445 0 0 0 -1.613391,1.6449 v 2.0725 a 1.6133915,1.6407003 0 1 0 3.226783,0 v -2.0725 a 1.6171279,1.6445 0 0 0 -1.613392,-1.6449 z m 0.927305,3.7174 a 0.9273045,0.9430004 0 1 1 -1.854609,0 v -2.0725 a 0.9273045,0.9430004 0 1 1 1.854609,0 z"
     id="path4720"
     inkscape:connector-curvature="0"
     style="stroke-width:0.99164277" />
  <path
     d="m 20.651557,30.5636 a 0.34417438,0.35 0 0 0 -0.343093,0.35 v 4.6632 a 0.34309269,0.3489 0 1 0 0.686087,0 v -4.6634 a 0.34358437,0.3494 0 0 0 -0.342994,-0.3498 z"
     id="path4722"
     inkscape:connector-curvature="0"
     style="stroke-width:0.99164277" />
  <path
     d="m 23.797515,30.5636 a 1.6171279,1.6445 0 0 0 -1.613293,1.6449 v 2.0725 a 1.6133912,1.6407 0 1 0 3.226684,0 v -2.0725 a 1.6171279,1.6445 0 0 0 -1.613391,-1.6449 z m 0.927304,3.7174 a 0.92730411,0.943 0 1 1 -1.85451,0 v -2.0725 a 0.92730411,0.943 0 1 1 1.85451,0 z"
     id="path4724"
     inkscape:connector-curvature="0"
     style="stroke-width:0.99164277" />
  <path
     d="m 7.8443362,21.9367 a 0.34358437,0.3494 0 0 0 0.3429943,-0.35 v -4.663 a 0.34309269,0.3489 0 1 0 -0.686087,0 v 4.6633 a 0.34358437,0.3494 0 0 0 0.3430927,0.3497 z"
     id="path4726"
     inkscape:connector-curvature="0"
     style="stroke-width:0.99164277" />
  <path
     d="m 10.990688,16.574 a 1.6170296,1.6444 0 0 0 -1.6133921,1.6449 v 2.0725 a 1.6133915,1.6407005 0 1 0 3.2267831,0 V 18.2189 A 1.6171279,1.6445 0 0 0 10.990688,16.574 Z m 0.927304,3.7174 a 0.92730451,0.9430004 0 1 1 -1.854609,0 v -2.0725 a 0.92730451,0.9430004 0 1 1 1.854609,0 z"
     id="path4728"
     inkscape:connector-curvature="0"
     style="stroke-width:0.99164277" />
  <path
     d="m 14.248045,21.9367 a 0.34358437,0.3494 0 0 0 0.343092,-0.35 v -4.663 a 0.34309269,0.3489 0 1 0 -0.686087,0 v 4.6633 a 0.34358437,0.3494 0 0 0 0.342995,0.3497 z"
     id="path4730"
     inkscape:connector-curvature="0"
     style="stroke-width:0.99164277" />
  <path
     d="m 17.394101,16.574 a 1.6171279,1.6445 0 0 0 -1.613391,1.6449 v 2.0725 a 1.6133915,1.6407003 0 1 0 3.226783,0 V 18.2189 A 1.6170296,1.6444 0 0 0 17.394101,16.574 Z m 0.927305,3.7174 a 0.9273045,0.9430004 0 1 1 -1.854609,0 v -2.0725 a 0.9273045,0.9430004 0 1 1 1.854609,0 z"
     id="path4732"
     inkscape:connector-curvature="0"
     style="stroke-width:0.99164277" />
  <path
     d="m 20.651557,21.9367 a 0.34358437,0.3494 0 0 0 0.342994,-0.35 v -4.663 a 0.34309269,0.3489 0 1 0 -0.686087,0 v 4.6633 a 0.34358437,0.3494 0 0 0 0.343093,0.3497 z"
     id="path4734"
     inkscape:connector-curvature="0"
     style="stroke-width:0.99164277" />
  <path
     d="m 23.709822,16.574 a 1.6170296,1.6444 0 0 0 -1.613293,1.6449 v 2.0725 a 1.6133912,1.6407 0 1 0 3.226684,0 V 18.2189 A 1.6170296,1.6444 0 0 0 23.709822,16.574 Z m 0.927304,3.7174 a 0.92730411,0.943 0 1 1 -1.85451,0 v -2.0725 a 0.92730411,0.943 0 1 1 1.85451,0 z"
     id="path4736"
     inkscape:connector-curvature="0"
     style="stroke-width:0.99164277" />
  <path
     d="m 18.313629,9.1128 a 0.34358437,0.3494 0 0 0 -0.342994,0.35 v 4.6632 a 0.34309269,0.3489 0 1 0 0.686087,0 V 9.4626 A 0.34417438,0.35 0 0 0 18.313629,9.1128 Z"
     id="path4738"
     inkscape:connector-curvature="0"
     style="stroke-width:0.99164277" />
  <path
     d="M 15.518441,14.4755 A 1.6181113,1.6455 0 0 0 17.132619,12.83 v -2.0723 a 1.6137845,1.6411 0 1 0 -3.227569,0 V 12.83 a 1.6173246,1.6447 0 0 0 1.613391,1.6455 z m -0.927304,-3.7178 a 0.9276975,0.94340004 0 1 1 1.855395,0 V 12.83 a 0.9276975,0.94340004 0 1 1 -1.855395,0 z"
     id="path4740"
     inkscape:connector-curvature="0"
     style="stroke-width:0.99164277" />
  <path
     d="m 18.313629,24.0351 a 0.34358437,0.3494 0 0 0 -0.342994,0.35 v 4.6632 a 0.34309269,0.3489 0 1 0 0.686087,0 v -4.6634 a 0.34417438,0.35 0 0 0 -0.343093,-0.3498 z"
     id="path4742"
     inkscape:connector-curvature="0"
     style="stroke-width:0.99164277" />
  <path
     d="m 15.167671,29.3978 a 1.6181113,1.6455 0 0 0 1.614178,-1.6453 V 25.68 a 1.6137845,1.6411 0 1 0 -3.227569,0 v 2.0725 a 1.6173246,1.6447 0 0 0 1.613391,1.6453 z M 14.240367,25.68 a 0.9276975,0.94340004 0 1 1 1.855395,0 v 2.0725 a 0.9276975,0.94340004 0 1 1 -1.855395,0 z"
     id="path4744"
     inkscape:connector-curvature="0"
     style="stroke-width:0.99164277" />
  <path
     d="m 11.910216,24.0351 a 0.34358437,0.3494 0 0 0 -0.342995,0.35 v 4.6632 a 0.34309269,0.3489 0 1 0 0.686087,0 v -4.6634 a 0.34417438,0.35 0 0 0 -0.343092,-0.3498 z"
     id="path4746"
     inkscape:connector-curvature="0"
     style="stroke-width:0.99164277" />
  <path
     d="M 8.7641597,29.3978 A 1.6182096,1.6456 0 0 0 10.378435,27.7525 V 25.68 a 1.6138828,1.6412 0 1 0 -3.2276664,0 v 2.0725 a 1.6174229,1.6448 0 0 0 1.6133911,1.6453 z M 7.8368556,25.68 a 0.92779579,0.9435 0 1 1 1.8554932,0 v 2.0725 a 0.92779579,0.9435 0 1 1 -1.8554932,0 z"
     id="path4748"
     inkscape:connector-curvature="0"
     style="stroke-width:0.99164277" />
  <path
     d="m 24.717141,24.0351 a 0.34417438,0.35 0 0 0 -0.343093,0.35 v 4.6632 a 0.34309269,0.3489 0 1 0 0.686087,0 v -4.6634 a 0.34358437,0.3494 0 0 0 -0.342994,-0.3498 z"
     id="path4750"
     inkscape:connector-curvature="0"
     style="stroke-width:0.99164277" />
  <path
     d="M 21.571084,29.3978 A 1.6181113,1.6455 0 0 0 23.18536,27.7525 V 25.68 a 1.6138828,1.6412 0 1 0 -3.227667,0 v 2.0725 a 1.6174229,1.6448 0 0 0 1.613391,1.6453 z M 20.64378,25.68 a 0.92779579,0.9435 0 1 1 1.855493,0 v 2.0725 a 0.92779579,0.9435 0 1 1 -1.855493,0 z"
     id="path4752"
     inkscape:connector-curvature="0"
     style="stroke-width:0.99164277" />
  <path
     d="M37.6,17.9816a3.2033,3.2033,0,0,0,1.6506-.3333,1.1627,1.1627,0,0,0,.5378-1.0666,1.4888,1.4888,0,0,0-.5278-1.2,8.06,8.06,0,0,0-1.7388-1q-.5859-.2677-1.1228-.5447a3.8785,3.8785,0,0,1-.9285-.6557,2.8389,2.8389,0,0,1-.625-.9117,3.2533,3.2533,0,0,1-.2344-1.3107,3.1174,3.1174,0,0,1,.9966-2.434,3.8987,3.8987,0,0,1,2.7154-.9,6.731,6.731,0,0,1,.8594.0555q.4293.0561.8013.1335t.6541.1666q.2833.0888.44.1558L40.7455,9.913a4.27,4.27,0,0,0-.9176-.3662,5.2544,5.2544,0,0,0-1.5044-.189,2.5113,2.5113,0,0,0-1.3291.3448,1.1688,1.1688,0,0,0-.566,1.0774,1.6278,1.6278,0,0,0,.1272.6667,1.497,1.497,0,0,0,.3907.5228,3.1367,3.1367,0,0,0,.6541.4336q.391.1993.9375.4216.7222.3116,1.29.6121a4.0051,4.0051,0,0,1,.9666.7,2.7014,2.7014,0,0,1,.615.9672,3.928,3.928,0,0,1,.2154,1.389,2.897,2.897,0,0,1-1.0457,2.4227,4.7218,4.7218,0,0,1-2.9788.8224,6.89,6.89,0,0,1-2.1095-.2559,10.1126,10.1126,0,0,1-1.0356-.3889l.3316-1.7779q.3133.1339.9965.4A5.1063,5.1063,0,0,0,37.6,17.9816Z"
     id="path4754" />
  <path
     d="M45.414,19.4707H43.598V7.9133h1.816Z"
     id="path4756" />
  <path
     d="M51.2364,19.693a3.2143,3.2143,0,0,1-2.3838-.8225,3.5322,3.5322,0,0,1-.7032-2.4227V2.5789l1.817-.3557V16.1145a3.8032,3.8032,0,0,0,.0781.8443,1.2,1.2,0,0,0,.2544.5337,1.0692,1.0692,0,0,0,.4687.3006,4.3625,4.3625,0,0,0,.7222.1666Z"
     id="path4758" />
  <path
     d="M52.6036,13.7146a8.29,8.29,0,0,1,.3907-2.6786,5.7678,5.7678,0,0,1,1.0356-1.9,4.2247,4.2247,0,0,1,1.4844-1.1335,4.1505,4.1505,0,0,1,1.7188-.3779A3.6976,3.6976,0,0,1,60.3792,9.08a7.37,7.37,0,0,1,1.0937,4.4341v.3443a3.6459,3.6459,0,0,1-.02.3889H54.4987a4.5675,4.5675,0,0,0,.9184,2.7342,3.1191,3.1191,0,0,0,2.5.9335,5.8644,5.8644,0,0,0,1.6116-.1894,5.3436,5.3436,0,0,0,.9866-.3662l.2544,1.7333a4.9633,4.9633,0,0,1-1.1628.4226,7.3328,7.3328,0,0,1-1.8851.2222,5.35,5.35,0,0,1-2.2957-.4554,4.3321,4.3321,0,0,1-1.5916-1.256,5.3488,5.3488,0,0,1-.9285-1.9008A9.0729,9.0729,0,0,1,52.6036,13.7146Zm6.9743-1.1339a3.8124,3.8124,0,0,0-.615-2.3007,2.0247,2.0247,0,0,0-1.7488-.9A2.1606,2.1606,0,0,0,56.11,9.658a2.6792,2.6792,0,0,0-.81.7222,3.463,3.463,0,0,0-.5178,1.0228,5.592,5.592,0,0,0-.2444,1.1777Z"
     id="path4760" />
  <path
     d="m 63.560346,8.2467 q 0.591416,-0.1776 1.570364,-0.378 a 11.972062,12.66 0 0 1 2.253414,-0.2 4.3500384,4.6 0 0 1 1.902953,0.3889 3.0532541,3.2287 0 0 1 1.210445,1.0888 4.2689007,4.5142 0 0 1 0.63747,1.6782 10.454655,11.0554 0 0 1 0.184688,2.1558 v 6.49 H 69.601509 V 13.425 A 10.60511,11.2145 0 0 0 69.48141,11.6025 3.1560474,3.3374 0 0 0 69.084233,10.3802 1.6203893,1.7135 0 0 0 68.345388,9.7026 2.8951397,3.0615 0 0 0 67.199342,9.4913 q -0.277078,0 -0.572124,0.0223 c -0.197643,0.015 -0.384884,0.0332 -0.563614,0.0555 -0.17873,0.0223 -0.339303,0.0483 -0.480206,0.0779 -0.140904,0.0296 -0.24313,0.0519 -0.304976,0.0665 v 9.7572 h -1.718076 z"
     id="path4762"
     inkscape:connector-curvature="0"
     style="stroke-width:0.97245079" />
  <path
     d="m 74.935615,7.9133 h 3.8492 V 9.647 h -3.8492 v 5.3345 a 7.2741,7.2741 0 0 0 0.1172,1.4336 2.2922,2.2922 0 0 0 0.3525,0.8889 1.2752,1.2752 0 0 0 0.5859,0.4554 2.3016,2.3016 0 0 0 0.82,0.1329 3.4394,3.4394 0 0 0 1.3182,-0.21 c 0.3325,-0.1412 0.5632,-0.2414 0.694,-0.3006 l 0.3516,1.7114 a 6.2639,6.2639 0 0 1 -0.9575,0.3889 4.8254,4.8254 0 0 1 -1.5626,0.2331 4.2181,4.2181 0 0 1 -1.71,-0.3 2.5415,2.5415 0 0 1 -1.0838,-0.9 3.8689,3.8689 0 0 1 -0.5769,-1.4782 11.0434,11.0434 0 0 1 -0.1653,-2.0338 V 4.6905 l 1.816,-0.3556 z"
     id="path4764"
     inkscape:connector-curvature="0" />
  <path
     class="s3"
     d="m 85.910388,17.96 a 2.676477,2.3428 0 0 1 -0.57624,1.4993 2.054997,1.7988 0 0 1 -3.138704,0 2.833218,2.48 0 0 1 0,-2.9985 2.054997,1.7988 0 0 1 3.138704,0 2.6786476,2.3447 0 0 1 0.57624,1.4992 z"
     id="path4766"
     inkscape:connector-curvature="0"
     style="fill:#ff9900;stroke-width:1.0688436" />
  <path
     d="m 91.015761,19.693 a 3.2157,3.2157 0 0 1 -2.3838,-0.8225 3.5369,3.5369 0 0 1 -0.7023,-2.4227 V 2.5789 l 1.816,-0.3557 v 13.8913 a 3.8025,3.8025 0 0 0 0.0782,0.8443 1.2081,1.2081 0 0 0 0.2543,0.5337 1.07,1.07 0 0 0 0.4688,0.3006 4.3536,4.3536 0 0 0 0.7231,0.1666 z"
     id="path4768"
     inkscape:connector-curvature="0" />
  <path
     d="m 94.765761,19.4707 h -1.8165 V 7.9133 h 1.8165 z"
     id="path4770"
     inkscape:connector-curvature="0" />
  <path
     d="m 97.005483,8.2467 q 0.591512,-0.1776 1.570463,-0.378 a 11.974838,12.6629 0 0 1 2.254234,-0.2 4.3530767,4.6032 0 0 1 1.90296,0.3889 3.0507094,3.226 0 0 1 1.20959,1.0888 4.2562408,4.5008 0 0 1 0.63748,1.6782 10.454685,11.0554 0 0 1 0.18468,2.1558 v 6.49 h -1.71817 V 13.425 a 10.60514,11.2145 0 0 0 -0.12029,-1.8225 3.1560563,3.3374 0 0 0 -0.39718,-1.2223 1.6203938,1.7135 0 0 0 -0.73885,-0.6776 2.8937293,3.06 0 0 0 -1.14519,-0.2113 c -0.18469,0 -0.37628,0.0077 -0.57298,0.0223 -0.196694,0.0146 -0.384878,0.0332 -0.563602,0.0555 -0.178724,0.0223 -0.338438,0.0483 -0.480185,0.0779 -0.141754,0.0296 -0.243128,0.0519 -0.304974,0.0665 v 9.7572 h -1.71827 z"
     id="path4772"
     inkscape:connector-curvature="0"
     style="stroke-width:0.97245216" />
  <path
     d="m 110.26484,13.1144 a 12.8978,12.8978 0 0 1 1.2409,1.2669 q 0.6542,0.7554 1.2892,1.633 0.635,0.8776 1.2009,1.7788 0.567,0.8989 0.9576,1.6776 h -2.1295 q -0.41,-0.7773 -0.9475,-1.5893 -0.5375,-0.812 -1.1225,-1.5556 a 17.4244,17.4244 0 0 0 -1.1919,-1.3671 11.2312,11.2312 0 0 0 -1.1528,-1.0447 v 5.5567 h -1.8173 V 2.5789 l 1.8169,-0.3557 v 10.5351 q 0.4688,-0.5328 1.0356,-1.1777 0.5668,-0.6449 1.1138,-1.3115 0.5464,-0.6667 1.0348,-1.2778 0.4884,-0.6111 0.84,-1.078 h 2.1294 q -0.45,0.5555 -0.9766,1.2223 -0.5266,0.6668 -1.0935,1.3444 -0.5668,0.6776 -1.1428,1.3561 -0.576,0.6785 -1.0847,1.2783 z"
     id="path4774"
     inkscape:connector-curvature="0" />
  <path
     d="M34.7569,29.0458h1.2836V39.477H34.7569Z"
     id="path4776" />
  <path
     d="M44.2567,39.477q-.2916-.556-.6687-1.25-.3774-.6912-.813-1.4372-.4375-.7446-.9067-1.5128t-.933-1.4828q-.4632-.7144-.8993-1.347t-.8068-1.1139V39.477H37.9719V29.0458h1.0193q.6215.7527,1.3291,1.7542t1.4027,2.062q.6936,1.06,1.31,2.0848.6146,1.0231,1.0383,1.8206V29.0458h1.2564V39.477Z"
     id="path4778" />
  <path
     d="M49.39,38.4387q2.01,0,2.01-1.5656a1.74,1.74,0,0,0-.178-.8206,1.8952,1.8952,0,0,0-.4834-.5866,3.2389,3.2389,0,0,0-.694-.429q-.391-.18-.8276-.3615a7.9481,7.9481,0,0,1-.9521-.4436,3.3272,3.3272,0,0,1-.78-.5875,2.4941,2.4941,0,0,1-.5232-.8051A2.9815,2.9815,0,0,1,46.77,31.71a2.7836,2.7836,0,0,1,.82-2.1367,3.181,3.181,0,0,1,2.263-.7677,5.2808,5.2808,0,0,1,1.5144.2031,3.244,3.244,0,0,1,.9984.4435l-.41,1.1895a3.4039,3.4039,0,0,0-.8267-.3834,3.9325,3.9325,0,0,0-1.2764-.1886,2.5145,2.5145,0,0,0-.6886.09,1.6381,1.6381,0,0,0-.5551.2714,1.2743,1.2743,0,0,0-.377.459,1.4485,1.4485,0,0,0-.139.6549,1.5448,1.5448,0,0,0,.1454.7068,1.5793,1.5793,0,0,0,.41.5045,3.4128,3.4128,0,0,0,.615.399q.3516.18.774.3615.5955.2706,1.092.542a3.5542,3.5542,0,0,1,.8594.6466,2.6088,2.6088,0,0,1,.5623.8953,3.5261,3.5261,0,0,1,.199,1.2569,2.5953,2.5953,0,0,1-.88,2.1075,3.7521,3.7521,0,0,1-2.48.7378A5.6686,5.6686,0,0,1,48.39,39.62a6.651,6.651,0,0,1-.8131-.1958,4.39,4.39,0,0,1-.6159-.24q-.2576-.1284-.4034-.2186l.3843-1.204a5.4268,5.4268,0,0,0,.9257.4363A4.2112,4.2112,0,0,0,49.39,38.4387Z"
     id="path4780" />
  <path
     d="M60.0785,29.0458V30.31H57.195v9.167H55.9113V30.31H53.027V29.0458Z"
     id="path4782" />
  <path
     d="M66.2708,39.477q-.2247-.6775-.4233-1.3325t-.4106-1.3315H61.2834l-.834,2.664H59.1131q.5288-1.6558.992-3.063t.9067-2.6722q.4428-1.2638.8794-2.4154t.913-2.2806h1.1773q.477,1.13.913,2.2806t.88,2.4154q.4429,1.2651.9058,2.6722t.9929,3.063Zm-1.2037-3.8681q-.4237-1.31-.84-2.5365T63.36,30.7171q-.4632,1.1285-.8794,2.3553t-.8276,2.5365Z"
     id="path4784" />
  <path
     d="M74.8567,39.477q-.2916-.556-.6677-1.25-.3774-.6912-.814-1.4372t-.9066-1.5128Q72,34.51,71.5363,33.7946t-.9-1.347q-.436-.6326-.8067-1.1139V39.477H68.5729V29.0458h1.0184q.6213.7527,1.33,1.7542t1.4017,2.062q.695,1.06,1.31,2.0848t1.0384,1.8206V29.0458h1.2573V39.477Z"
     id="path4786" />
  <path
     d="M83.985,29.0458V30.31H81.1015v9.167H79.8178V30.31H76.9335V29.0458Z"
     id="path4788" />
  <path
     d="M87.5713,35.3466a5.6021,5.6021,0,0,1,.2652-1.8143,3.8949,3.8949,0,0,1,.7014-1.2869,2.86,2.86,0,0,1,1.0047-.7678,2.8162,2.8162,0,0,1,1.1647-.2559,2.5016,2.5016,0,0,1,2.1294.9863,4.9865,4.9865,0,0,1,.7413,3.0029v.2332c0,.0956-.0054.183-.0127.2632h-4.71a3.0867,3.0867,0,0,0,.6223,1.8516,2.11,2.11,0,0,0,1.6934.6321,4.0063,4.0063,0,0,0,1.09-.1275,3.5983,3.5983,0,0,0,.6687-.2487l.1726,1.174a3.3756,3.3756,0,0,1-.7867.286,4.9674,4.9674,0,0,1-1.2773.15,3.6361,3.6361,0,0,1-1.5553-.3079,2.94,2.94,0,0,1-1.0775-.8506,3.6368,3.6368,0,0,1-.6286-1.287A6.16,6.16,0,0,1,87.5713,35.3466Zm4.724-.7678a2.5876,2.5876,0,0,0-.4179-1.5583,1.3711,1.3711,0,0,0-1.1828-.6094,1.46,1.46,0,0,0-.7486.1886,1.81,1.81,0,0,0-.5487.4891,2.3182,2.3182,0,0,0-.3507.6922,3.8169,3.8169,0,0,0-.1653.7978Z"
     id="path4790" />
  <path
     d="M97.2155,38.2065q2.0113,0,2.0113-1.5657a1.74,1.74,0,0,0-.1789-.8206,1.88,1.88,0,0,0-.4833-.5865,3.2342,3.2342,0,0,0-.6941-.429c-.2607-.12-.536-.2414-.8267-.3616A7.9612,7.9612,0,0,1,96.0908,34a3.3433,3.3433,0,0,1-.78-.5875,2.4768,2.4768,0,0,1-.5224-.8051,2.9644,2.9644,0,0,1-.1917-1.1294,2.783,2.783,0,0,1,.8194-2.1367,3.1808,3.1808,0,0,1,2.263-.7678,5.2808,5.2808,0,0,1,1.5144.2031,3.2484,3.2484,0,0,1,.9993.4436l-.4106,1.1894a3.4077,3.4077,0,0,0-.8267-.3834,3.9288,3.9288,0,0,0-1.2764-.1885,2.5146,2.5146,0,0,0-.6886.09,1.6465,1.6465,0,0,0-.5551.2715,1.2836,1.2836,0,0,0-.377.459,1.45,1.45,0,0,0-.139.6548,1.5442,1.5442,0,0,0,.1454.7068,1.571,1.571,0,0,0,.4106.5046,3.3811,3.3811,0,0,0,.615.3989q.35.18.774.3616.5955.27,1.0911.5419a3.5578,3.5578,0,0,1,.86.6467,2.6231,2.6231,0,0,1,.5624.8953,3.5492,3.5492,0,0,1,.198,1.2568,2.5975,2.5975,0,0,1-.8794,2.1076,3.7552,3.7552,0,0,1-2.481.7377,5.6585,5.6585,0,0,1-.9984-.0828,6.6714,6.6714,0,0,1-.814-.1959,4.3322,4.3322,0,0,1-.615-.24q-.2589-.1284-.4034-.2186l.3834-1.2041a5.4229,5.4229,0,0,0,.9257.4363A4.2178,4.2178,0,0,0,97.2155,38.2065Z"
     id="path4792" />
  <path
     d="M101.78,28.8136h1.2837V39.2448H101.78Z"
     id="path4794" />
  <path
     d="M109.11,37.7993q-.1335-.3606-.3507-.918-.2193-.5561-.47-1.2041-.2521-.6462-.536-1.3315t-.536-1.2952q-.2521-.6093-.47-1.0911t-.3507-.7377q-.1458,1.7773-.238,3.8462T106,39.2448h-1.2564q.0519-1.3552.119-2.7324.0654-1.3772.1518-2.7087t.1853-2.5966q.0995-1.2651.218-2.3935h1.1247q.357.6625.7676,1.5656t.82,1.889q.41.9862.794,1.9718t.7,1.7988q.3175-.8129.7013-1.7988t.794-1.9718q.41-.9851.82-1.889t.7676-1.5656h1.1238q.45,5.0425.675,10.4312h-1.2564q-.0667-2.1067-.159-4.1769t-.238-3.8462q-.1322.2568-.3507.7377t-.47,1.0911q-.252.6106-.536,1.2952t-.536,1.3315q-.2506.6475-.47,1.2041t-.3507.918Z"
     id="path4796" />
  <rect
     x="33.136185"
     y="23.449247"
     width="82.793701"
     height="1.9491"
     id="rect4798" />
  <path
     d="M 25.187086,45 H 6.9280456 A 3.3434083,3.4 0 0 1 3.5931926,41.6 V 3.4 A 3.3434083,3.4 0 0 1 6.9280456,0 H 25.187086 a 3.3422282,3.3988 0 0 1 3.333575,3.4 V 41.601 A 3.3422282,3.3988 0 0 1 25.187086,45 Z M 6.9280456,0.7 a 2.6550595,2.7 0 0 0 -2.648766,2.7 v 38.201 a 2.6550595,2.7 0 0 0 2.648766,2.7 H 25.187086 a 2.6550595,2.7 0 0 0 2.647882,-2.7 V 3.4 A 2.6550595,2.7 0 0 0 25.187086,0.7 Z"
     id="path4800"
     inkscape:connector-curvature="0"
     style="stroke-width:0.99164277" />
  <path
     d="m 16.287622,43.1384 a 2.1782305,2.2151 0 1 1 2.172527,-2.2151 2.1778371,2.2147 0 0 1 -2.172527,2.2151 z m 0,-4.1969 a 1.948912,1.9819 0 1 0 1.943897,1.9818 1.9484203,1.9814 0 0 0 -1.943897,-1.9818 z"
     id="path4802"
     inkscape:connector-curvature="0"
     style="stroke-width:0.99164277" />
  <path
     d="m 16.058894,4.2925 a 1.0317365,1.0492 0 1 1 1.028983,-1.0492 1.0319331,1.0494 0 0 1 -1.028983,1.0492 z m 0,-1.8653 a 0.80251632,0.8161 0 1 0 0.800451,0.8161 0.80251632,0.8161 0 0 0 -0.800451,-0.8161 z"
     id="path4804"
     inkscape:connector-curvature="0"
     style="stroke-width:0.99164277" />
  <path
     class="s4"
     d="M31.2437,9.3113c-.6736-.6851-1.9156-.6277-2.8055-.7222a51.2908,51.2908,0,0,0-6.3994.1159A5.9686,5.9686,0,0,0,19.1419,9.74a5.6644,5.6644,0,0,1-1.9138.8891,6.4693,6.4693,0,0,1-2.5012,0A5.2858,5.2858,0,0,1,12.813,9.74,5.9686,5.9686,0,0,0,9.9161,8.705a51.2908,51.2908,0,0,0-6.3994-.1159c-.89.0945-2.1319.0371-2.8055.7222a2.1417,2.1417,0,0,0-.5482,1.327v.9243a.9324.9324,0,0,0,.9312.9337.9324.9324,0,0,1,.9313.9337v.9336c0,3.61,2.9187,6.0828,6.519,6.0828s6.519-2.4732,6.519-6.0828a.9141.9141,0,1,1,1.8279,0c0,3.61,2.9187,6.0828,6.519,6.0828s6.519-2.4732,6.519-6.0828V13.43a.9325.9325,0,0,1,.9313-.9337.9325.9325,0,0,0,.9313-.9337v-.9243A2.1419,2.1419,0,0,0,31.2437,9.3113Z"
     id="path4806" />
  <path
     d="M23.41,20.6092c-3.8092,0-6.6818-2.685-6.6818-6.2457a.7515.7515,0,1,0-1.5026,0c0,3.5607-2.8725,6.2457-6.6817,6.2457s-6.6808-2.685-6.6808-6.2457V13.43a.771.771,0,0,0-.7695-.7706A1.0964,1.0964,0,0,1,0,11.5624v-.924A2.28,2.28,0,0,1,.596,9.1966a3.6122,3.6122,0,0,1,2.3892-.7281c.179-.0123.3525-.0246.5142-.0415a50.6932,50.6932,0,0,1,6.441.1171,6.1381,6.1381,0,0,1,2.9679,1.0638,5.1322,5.1322,0,0,0,1.8569.8625,6.2885,6.2885,0,0,0,2.42.0009,5.5337,5.5337,0,0,0,1.8614-.8634,6.1385,6.1385,0,0,1,2.9671-1.0638,50.7132,50.7132,0,0,1,6.4419-.1171c.1617.0169.3352.0292.5142.0415a3.6166,3.6166,0,0,1,2.39.7281,2.2663,2.2663,0,0,1,.5942,1.4295v.9363a1.0964,1.0964,0,0,1-1.0938,1.097.7707.7707,0,0,0-.7686.7706v.9335C30.0919,17.9242,27.2194,20.6092,23.41,20.6092Zm-7.4358-7.3414a1.1006,1.1006,0,0,1,1.0793,1.0957c0,3.3745,2.7326,5.92,6.3565,5.92s6.3565-2.5452,6.3565-5.92V13.43a1.0963,1.0963,0,0,1,1.0938-1.0966.7711.7711,0,0,0,.7685-.771v-.924a1.9826,1.9826,0,0,0-.5005-1.2122h-.0009a3.394,3.394,0,0,0-2.18-.6321c-.1836-.0128-.3607-.0251-.526-.0428a51.4246,51.4246,0,0,0-6.3584.1152A5.8709,5.8709,0,0,0,19.2376,9.872a5.8445,5.8445,0,0,1-1.9668.9144,6.5509,6.5509,0,0,1-2.5819.0009,5.4343,5.4343,0,0,1-1.9713-.9153A5.87,5.87,0,0,0,9.8913,8.8665a51.3962,51.3962,0,0,0-6.3574-.1152c-.1653.0177-.3425.03-.5269.0428a3.3939,3.3939,0,0,0-2.1794.6316,1.9509,1.9509,0,0,0-.5024,1.2255v.9112a.7711.7711,0,0,0,.7686.771A1.0965,1.0965,0,0,1,2.1885,13.43v.9335c0,3.3745,2.7326,5.92,6.3556,5.92s6.3565-2.5452,6.3565-5.92A1.1,1.1,0,0,1,15.9744,13.2678Z"
     id="path4808" />
  <path
     class="s5"
     d="m 3.3879663,14.49 a 7.0420045,7.1612 0 0 0 0.8406705,2.5753 4.7299393,4.81 0 0 0 2.1763621,1.8135 6.1718333,6.2763 0 0 0 6.2705621,-0.8112 c 1.525578,-1.322 2.692919,-4.2143 1.416032,-6.065 C 13.027602,10.46 10.8595,9.9693 9.1237798,9.8845 8.148488,9.8369 7.1586425,9.8681 6.1781388,9.8401 a 3.1687643,3.2224 0 0 0 -2.2654541,0.6542 3.0097558,3.0607 0 0 0 -0.7108676,2.647 c 0.051626,0.425 0.1081691,0.8847 0.1861492,1.3487 z"
     id="path4810"
     inkscape:connector-curvature="0"
     style="fill:#330066;stroke-width:0.99164277" />
  <path
     d="M 8.9228803,19.51 A 6.6163099,6.7283 0 0 1 6.3607479,18.9868 4.8715425,4.954 0 0 1 4.1318746,17.1283 6.9947051,7.1131 0 0 1 3.2751754,14.51 v 0 C 3.196507,14.0391 3.1384891,13.57 3.0883379,13.1561 A 3.0960944,3.1485 0 0 1 3.8351963,10.4083 3.1623725,3.2159 0 0 1 6.1824656,9.7235 c 0.4172377,0.0119 0.8371304,0.0132 1.2560398,0.0141 0.5556941,0.0014 1.130072,0.0032 1.6913713,0.0306 1.3766973,0.0674 3.8627183,0.438 5.0562163,2.1676 1.382991,2.0047 0.02862,4.951 -1.435699,6.2211 A 5.9083924,6.0084 0 0 1 8.9228803,19.51 Z M 3.5002655,14.4705 a 6.8007874,6.9159 0 0 0 0.8245435,2.5329 4.6347505,4.7132 0 0 0 2.1253259,1.7683 6.0482255,6.1506 0 0 0 6.1514781,-0.7924 c 1.43029,-1.24 2.653289,-4.088 1.396364,-5.91 C 12.861612,10.4212 10.453178,10.066 9.1184697,10.0009 8.5619889,9.9736 7.9902661,9.9718 7.436932,9.9709 7.0161543,9.97 6.5944915,9.9686 6.1746971,9.9568 a 2.9804518,3.0309 0 0 0 -2.184229,0.623 2.8741511,2.9228 0 0 0 -0.6753684,2.547 c 0.049954,0.4116 0.1071857,0.878 0.1848708,1.3438 z"
     id="path4812"
     inkscape:connector-curvature="0"
     style="stroke-width:0.99164277" />
  <path
     class="s5"
     d="m 29.012732,14.49 a 7.0400378,7.1592 0 0 1 -0.84067,2.5753 4.7299393,4.81 0 0 1 -2.176362,1.8135 6.1716366,6.2761 0 0 1 -6.270464,-0.8112 c -1.525676,-1.322 -2.693017,-4.2143 -1.416032,-6.065 1.064187,-1.5426 3.232387,-2.0336 4.96801,-2.1184 0.97539,-0.0476 1.965235,-0.0164 2.945739,-0.0444 a 3.168666,3.2223 0 0 1 2.265356,0.6542 3.0098541,3.0608 0 0 1 0.710966,2.647 c -0.05202,0.4253 -0.108563,0.885 -0.186543,1.349 z"
     id="path4814"
     inkscape:connector-curvature="0"
     style="fill:#330066;stroke-width:0.99164277" />
  <path
     d="m 23.478113,19.51 a 5.9081957,6.0082 0 0 1 -3.827121,-1.353 c -1.465199,-1.27 -2.818493,-4.2155 -1.435698,-6.2211 1.193498,-1.73 3.679715,-2.1 5.056315,-2.1676 0.560512,-0.0274 1.13548,-0.0292 1.691371,-0.0306 0.419008,-9e-4 0.8389,-0.0022 1.25604,-0.0141 a 3.195905,3.25 0 0 1 2.346876,0.6845 3.1641426,3.2177 0 0 1 0.74676,2.7474 c -0.05084,0.4144 -0.108169,0.8839 -0.187526,1.3548 v 0 a 6.9708095,7.0888 0 0 1 -0.856699,2.618 4.8553171,4.9375 0 0 1 -2.228087,1.8585 6.6122782,6.7242 0 0 1 -2.562231,0.5232 z m 2.927449,-9.5559 q -0.0885,0 -0.179561,0.0027 c -0.419892,0.0118 -0.841555,0.0132 -1.262235,0.0141 -0.553039,0.0014 -1.124761,0.0032 -1.681537,0.03 -1.33461,0.0651 -3.743044,0.42 -4.87941,2.0684 -1.256924,1.822 -0.03392,4.67 1.396365,5.91 a 6.0476355,6.15 0 0 0 6.151576,0.7924 4.6285554,4.7069 0 0 0 2.124048,-1.7683 6.7594865,6.8739 0 0 0 0.824543,-2.5329 v 0 c 0.07867,-0.465 0.135802,-0.9318 0.185855,-1.3434 A 2.8767078,2.9254 0 0 0 28.41023,10.58 2.8467155,2.8949 0 0 0 26.405562,9.954 Z"
     id="path4816"
     inkscape:connector-curvature="0"
     style="stroke-width:0.99164277" />
  <path
     class="s2"
     d="m 9.6152609,17.7175 c -0.1054157,0 -0.2099464,-0.005 -0.3153621,-0.0155 a 0.40809248,0.415 0 0 1 0.078668,-0.8261 2.7337279,2.78 0 0 0 2.1564992,-0.8224 3.2241273,3.2787 0 0 0 1.082772,-2.461 0.40710912,0.414 0 0 1 0.36453,-0.4535 0.40052064,0.4073 0 0 1 0.44487,0.3725 3.8996924,3.9657 0 0 1 -1.32399,3.1367 3.5807902,3.6414 0 0 1 -2.4879871,1.0693 z"
     id="path4818"
     inkscape:connector-curvature="0"
     style="fill:#ffffff;stroke-width:0.99164277" />
  <path
     class="s2"
     d="m 24.31249,17.7175 c -0.105415,0 -0.209946,-0.005 -0.315362,-0.0155 a 0.40809248,0.415 0 0 1 0.07867,-0.8261 2.7330396,2.7793 0 0 0 2.156596,-0.8224 3.2231439,3.2777 0 0 0 1.081691,-2.4614 0.40750247,0.4144 0 1 1 0.81117,-0.08 3.9065759,3.9727 0 0 1 -1.324776,3.1363 3.5810853,3.6417 0 0 1 -2.487989,1.0691 z"
     id="path4820"
     inkscape:connector-curvature="0"
     style="fill:#ffffff;stroke-width:0.99164277" />
  <path
     class="s6"
     d="m 44.49646,5.824 a 1.2582695,1.0923 0 0 1 -0.956114,-0.3666 1.603277,1.3918 0 0 1 -0.393505,-0.9891 1.603277,1.3918 0 0 1 0.393505,-0.9891 1.2930582,1.1225 0 0 1 1.91292,0 1.6078848,1.3958 0 0 1 0.393504,0.9891 1.6078848,1.3958 0 0 1 -0.393504,0.9891 1.2613798,1.095 0 0 1 -0.956806,0.3666 z"
     id="path4822"
     inkscape:connector-curvature="0"
     style="fill:#7d7dff;stroke-width:1.07328701" />
  <path
     class="s6"
     d="m 93.804118,5.824 a 1.2167166,1.0923 0 0 1 -0.92454,-0.3666 1.5513332,1.3927 0 0 1 -0.381957,-0.9891 1.5513332,1.3927 0 0 1 0.381511,-0.9891 1.249354,1.1216 0 0 1 1.84908,0 1.5513332,1.3927 0 0 1 0.381512,0.9891 1.5513332,1.3927 0 0 1 -0.381512,0.9891 1.2176078,1.0931 0 0 1 -0.924094,0.3666 z"
     id="path4824"
     inkscape:connector-curvature="0"
     style="fill:#7d7dff;stroke-width:1.05541623" />
  <path
     inkscape:connector-curvature="0"
     d="m 45.62573,-7.258087 a 0.3494,0.3494 0 0 0 -0.3489,0.35 v 4.6632 a 0.3489,0.3489 0 1 0 0.6977,0 v -4.6634 a 0.3494,0.3494 0 0 0 -0.3488,-0.3498 z"
     id="path4714-3" />
  <path
     d="m 48.825338,-7.258087 a 1.6445,1.6445 0 0 0 -1.640701,1.6449 v 2.0725 a 1.6407005,1.6407005 0 1 0 3.281401,0 v -2.0725 a 1.6446,1.6446 0 0 0 -1.6407,-1.6449 z m 0.943,3.7174 a 0.9430005,0.9430005 0 1 1 -1.886001,0 v -2.0725 a 0.9430005,0.9430005 0 1 1 1.886001,0 z"
     id="path4716-6"
     inkscape:connector-curvature="0" />
  <path
     inkscape:connector-curvature="0"
     d="m 52.13783,-7.258087 a 0.3494,0.3494 0 0 0 -0.3488,0.35 v 4.6632 a 0.3489,0.3489 0 1 0 0.6977,0 v -4.6634 a 0.35,0.35 0 0 0 -0.3489,-0.3498 z"
     id="path4718-7" />
  <path
     d="m 55.337138,-7.258087 a 1.6445,1.6445 0 0 0 -1.6407,1.6449 v 2.0725 a 1.6407002,1.6407002 0 1 0 3.2814,0 v -2.0725 a 1.6445,1.6445 0 0 0 -1.6407,-1.6449 z m 0.943,3.7174 a 0.9430002,0.9430002 0 1 1 -1.886,0 v -2.0725 a 0.9430002,0.9430002 0 1 1 1.886,0 z"
     id="path4720-5"
     inkscape:connector-curvature="0" />
  <path
     inkscape:connector-curvature="0"
     d="m 58.64973,-7.258087 a 0.35,0.35 0 0 0 -0.3489,0.35 v 4.6632 a 0.3489,0.3489 0 1 0 0.6977,0 v -4.6634 a 0.3494,0.3494 0 0 0 -0.3488,-0.3498 z"
     id="path4722-3" />
  <path
     d="m 61.848938,-7.258087 a 1.6445,1.6445 0 0 0 -1.6406,1.6449 v 2.0725 a 1.6407,1.6407 0 1 0 3.2813,0 v -2.0725 a 1.6445,1.6445 0 0 0 -1.6407,-1.6449 z m 0.943,3.7174 a 0.943,0.943 0 1 1 -1.8859,0 v -2.0725 a 0.943,0.943 0 1 1 1.8859,0 z"
     id="path4724-5"
     inkscape:connector-curvature="0" />
  <path
     inkscape:connector-curvature="0"
     d="m 56.27223,-13.786587 a 0.3494,0.3494 0 0 0 -0.3488,0.35 v 4.6632 a 0.3489,0.3489 0 1 0 0.6977,0 v -4.6634 a 0.35,0.35 0 0 0 -0.3489,-0.3498 z"
     id="path4742-6" />
  <path
     d="m 53.073022,-8.423887 a 1.6455,1.6455 0 0 0 1.6415,-1.6453 v -2.0725 a 1.6411,1.6411 0 1 0 -3.2822,0 v 2.0725 a 1.6447,1.6447 0 0 0 1.6407,1.6453 z m -0.943,-3.7178 a 0.9434,0.9434 0 1 1 1.8868,0 v 2.0725 a 0.9434,0.9434 0 1 1 -1.8868,0 z"
     id="path4744-2"
     inkscape:connector-curvature="0" />
  <path
     inkscape:connector-curvature="0"
     d="m 49.76043,-13.786587 a 0.3494,0.3494 0 0 0 -0.3488,0.35 v 4.6632 a 0.3489,0.3489 0 1 0 0.6977,0 v -4.6634 a 0.35,0.35 0 0 0 -0.3489,-0.3498 z"
     id="path4746-9" />
  <path
     d="m 46.561123,-8.423887 a 1.6456,1.6456 0 0 0 1.641599,-1.6453 v -2.0725 a 1.6412,1.6412 0 1 0 -3.282299,0 v 2.0725 a 1.6448,1.6448 0 0 0 1.6407,1.6453 z m -0.943,-3.7178 a 0.9435,0.9435 0 1 1 1.8869,0 v 2.0725 a 0.9435,0.9435 0 1 1 -1.8869,0 z"
     id="path4748-1"
     inkscape:connector-curvature="0" />
  <path
     inkscape:connector-curvature="0"
     d="m 62.78413,-13.786587 a 0.35,0.35 0 0 0 -0.3489,0.35 v 4.6632 a 0.3489,0.3489 0 1 0 0.6977,0 v -4.6634 a 0.3494,0.3494 0 0 0 -0.3488,-0.3498 z"
     id="path4750-2" />
  <path
     d="m 59.584822,-8.423887 a 1.6455,1.6455 0 0 0 1.6416,-1.6453 v -2.0725 a 1.6412,1.6412 0 1 0 -3.2823,0 v 2.0725 a 1.6448,1.6448 0 0 0 1.6407,1.6453 z m -0.943,-3.7178 a 0.9435,0.9435 0 1 1 1.8869,0 v 2.0725 a 0.9435,0.9435 0 1 1 -1.8869,0 z"
     id="path4752-7"
     inkscape:connector-curvature="0" />
</svg>
